<svg width="32" height="32" viewBox="0 0 32 32" fill="none" xmlns="http://www.w3.org/2000/svg">
<g clip-path="url(#clip0_4250_19157)">
<path d="M14.6128 0.523577L11.4155 3.34456H16.0008V1.11875e-05C15.506 -0.00160976 15.0106 0.172912 14.6128 0.523577Z" fill="#FDF0BC"/>
<path d="M17.3718 0.520324C16.9783 0.175062 16.4904 0.00162095 16.002 0V3.34455H20.5872L17.3718 0.520324Z" fill="url(#paint0_linear_4250_19157)"/>
<path d="M4.8476 5.1491L4.18799 9.39274L7.70039 6.40641L5.57866 3.84424C5.19846 4.16519 4.92972 4.62175 4.8476 5.1491Z" fill="#FDF0BC"/>
<path d="M6.95906 3.35039C6.43863 3.34174 5.95445 3.52707 5.57959 3.84424L7.70132 6.40641L11.2137 3.42009L6.95906 3.35039Z" fill="url(#paint1_linear_4250_19157)"/>
<path d="M0.301223 15.0528L2.48748 18.7334L3.2836 14.158L0.0335405 13.5767C-0.0544429 14.0705 0.0292747 14.5952 0.301223 15.0528Z" fill="#FDF0BC"/>
<path d="M0.777018 12.2998C0.373361 12.6327 0.120075 13.0898 0.0336914 13.5766L3.28428 14.1574L4.0804 9.58203L0.777018 12.2998Z" fill="url(#paint2_linear_4250_19157)"/>
<path d="M3.10157 25.6008L7.11148 26.9959L4.81911 22.9722L1.96045 24.6444C2.20627 25.0799 2.603 25.4274 3.10157 25.6008Z" fill="url(#paint3_linear_4250_19157)"/>
<path d="M1.7185 23.1821C1.61985 23.6997 1.71583 24.2152 1.95845 24.6447L4.81711 22.9725L2.52474 18.9487L1.7185 23.1821Z" fill="url(#paint4_linear_4250_19157)"/>
<path d="M11.9364 31.8577L15.8929 30.3151L11.5844 28.7261L10.4556 31.8691C10.92 32.042 11.4447 32.0496 11.9364 31.8577Z" fill="url(#paint5_linear_4250_19157)"/>
<path d="M9.34327 30.9044C9.59602 31.3653 9.99648 31.6976 10.4551 31.8683L11.5839 28.7253L7.27539 27.1362L9.34327 30.9044Z" fill="url(#paint6_linear_4250_19157)"/>
<path d="M22.6746 30.8957L24.727 27.1367L20.4185 28.7258L21.5473 31.8688C22.0123 31.6986 22.4191 31.3631 22.6746 30.8957Z" fill="url(#paint7_linear_4250_19157)"/>
<path d="M20.0836 31.8541C20.5699 32.0426 21.0871 32.0362 21.5468 31.8681L20.4179 28.7251L16.1094 30.3142L20.0836 31.8541Z" fill="url(#paint8_linear_4250_19157)"/>
<path d="M30.2895 23.1648L29.4774 18.9487L27.1851 22.9725L30.0437 24.6447C30.2922 24.2109 30.3909 23.6889 30.2895 23.1648Z" fill="url(#paint9_linear_4250_19157)"/>
<path d="M28.9137 25.5868C29.4053 25.4144 29.7978 25.0724 30.0436 24.6444L27.1849 22.9722L24.8926 26.9959L28.9137 25.5868Z" fill="url(#paint10_linear_4250_19157)"/>
<path d="M31.2193 12.2825L27.9224 9.58203L28.7185 14.1574L31.9691 13.5766C31.8854 13.0827 31.6294 12.6186 31.2193 12.2825Z" fill="url(#paint11_linear_4250_19157)"/>
<path d="M31.7012 15.0344C31.9688 14.5822 32.0526 14.0646 31.9689 13.5767L28.7183 14.1575L29.5144 18.7329L31.7012 15.0344Z" fill="url(#paint12_linear_4250_19157)"/>
<path d="M25.0277 3.34069L20.7891 3.41904L24.3015 6.40536L26.4232 3.84318C26.0451 3.52007 25.5551 3.33096 25.0277 3.34069Z" fill="url(#paint13_linear_4250_19157)"/>
<path d="M27.1433 5.13505C27.0612 4.61419 26.7972 4.16356 26.424 3.84424L24.3022 6.40641L27.8147 9.39274L27.1433 5.13505Z" fill="url(#paint14_linear_4250_19157)"/>
<path d="M16.0011 27.7767C22.1855 27.7767 27.199 22.6967 27.199 16.4301C27.199 10.1636 22.1855 5.0835 16.0011 5.0835C9.81669 5.0835 4.80322 10.1636 4.80322 16.4301C4.80322 22.6967 9.81669 27.7767 16.0011 27.7767Z" fill="url(#paint15_radial_4250_19157)"/>
<path d="M16.0015 4.06982C9.26459 4.06982 3.80322 9.6032 3.80322 16.4295C3.80322 23.2559 9.26459 28.7898 16.0015 28.7898C22.7383 28.7898 28.1997 23.2559 28.1997 16.4295C28.1997 9.6032 22.7383 4.06982 16.0015 4.06982ZM16.0015 27.7751C9.81756 27.7751 4.80463 22.6956 4.80463 16.4295C4.80463 10.1635 9.81756 5.084 16.0015 5.084C22.1854 5.084 27.1983 10.1635 27.1983 16.4295C27.1983 22.6956 22.1854 27.7751 16.0015 27.7751Z" fill="url(#paint16_linear_4250_19157)"/>
<path d="M16.0018 2.49268C8.40533 2.49268 2.24756 8.73224 2.24756 16.4296C2.24756 24.1269 8.40533 30.3665 16.0018 30.3665C23.5982 30.3665 29.756 24.1269 29.756 16.4296C29.756 8.73224 23.5982 2.49268 16.0018 2.49268ZM16.0018 28.7839C9.2681 28.7839 3.8094 23.2527 3.8094 16.4296C3.8094 9.60647 9.2681 4.0758 16.0018 4.0758C22.7354 4.0758 28.1941 9.60701 28.1941 16.4301C28.1941 23.2532 22.7354 28.7839 16.0018 28.7839Z" fill="url(#paint17_linear_4250_19157)"/>
<path d="M12.9136 22.1157C12.7269 22.1157 12.5536 22.0552 12.4006 21.9471C12.3809 21.9336 12.3675 21.9201 12.3542 21.9066C12.3409 21.9001 12.3339 21.8866 12.3275 21.8796C12.3009 21.859 12.2875 21.839 12.2678 21.819C12.2545 21.8055 12.2476 21.792 12.2348 21.7785L12.2284 21.772C12.215 21.7585 12.2081 21.745 12.2017 21.7315L12.1884 21.711C12.1617 21.6705 12.142 21.6299 12.1217 21.5894C12.1153 21.5694 12.1084 21.5489 12.1014 21.5289C12.095 21.5084 12.0881 21.4819 12.0817 21.4614C12.0748 21.4343 12.0684 21.4008 12.0615 21.3668C12.0615 21.3533 12.0551 21.3333 12.0551 21.3198C12.0551 21.2928 12.0487 21.2658 12.0487 21.2387C12.0487 21.1917 12.0551 21.1442 12.062 21.0902L12.575 18.0665L10.41 15.9269C10.37 15.8864 10.33 15.8394 10.297 15.7918C10.257 15.7313 10.2303 15.6838 10.2106 15.6297C10.2042 15.6097 10.1909 15.5827 10.1839 15.5487C10.1637 15.4676 10.1509 15.3866 10.1509 15.2991C10.1509 15.272 10.1509 15.252 10.1509 15.225C10.1509 15.1845 10.1573 15.144 10.1706 15.1035C10.1706 15.097 10.177 15.0835 10.177 15.0764C10.1839 15.0559 10.1839 15.0359 10.1903 15.0159C10.1903 15.0094 10.1967 14.9954 10.2037 14.9754C10.2101 14.9549 10.217 14.9349 10.2303 14.9149C10.2501 14.8744 10.2703 14.8338 10.3034 14.7868C10.3167 14.7598 10.3364 14.7398 10.3567 14.7193C10.3567 14.7193 10.3567 14.7128 10.3631 14.7128L10.4698 14.5372H10.5631C10.5764 14.5302 10.5828 14.5237 10.5961 14.5167C10.6095 14.5102 10.6361 14.4967 10.6559 14.4832C10.6825 14.4697 10.7156 14.4562 10.7556 14.4427C10.7689 14.4362 10.7886 14.4291 10.8089 14.4291C10.8356 14.4227 10.8622 14.4156 10.8953 14.4086L13.8926 13.9699L15.2113 11.2364C15.3579 10.9328 15.6576 10.7437 15.9903 10.7437C16.2303 10.7437 16.4633 10.8447 16.6297 11.0203C16.6563 11.0538 16.683 11.0808 16.7027 11.1148C16.7294 11.1554 16.756 11.1959 16.7758 11.2364L18.1147 13.9764L21.1051 14.4151C21.4384 14.4621 21.7114 14.6988 21.8111 15.0224C21.818 15.0429 21.8244 15.0559 21.8244 15.0764C21.8244 15.0829 21.8244 15.0829 21.8308 15.09C21.8372 15.1105 21.8441 15.1305 21.8441 15.1575C21.8441 15.164 21.8441 15.164 21.8441 15.171C21.8505 15.198 21.8505 15.218 21.8505 15.245C21.8575 15.3731 21.8372 15.5082 21.7839 15.6297C21.7636 15.6838 21.7375 15.7308 21.7039 15.7783L21.697 15.7848C21.6639 15.8318 21.6239 15.8794 21.5839 15.9199L19.419 18.0595L19.932 21.0761C19.9853 21.4068 19.8589 21.7375 19.5854 21.9401C19.5187 21.9871 19.4387 22.0346 19.3587 22.0616C19.3518 22.0616 19.3454 22.0687 19.3321 22.0687C19.2457 22.0957 19.1588 22.1092 19.0724 22.1092C18.9327 22.1092 18.7925 22.0757 18.6661 22.0082L15.9887 20.5839L13.3114 22.0082C13.193 22.0822 13.0533 22.1157 12.9136 22.1157Z" fill="#DF771E"/>
<path d="M15.9904 11.1758V16.7572L14.1519 14.375L15.5905 11.4259C15.6774 11.2639 15.8374 11.1758 15.9904 11.1758Z" fill="#FFFAF6"/>
<path d="M21.4061 15.1644L15.9976 16.7573L17.8356 14.375L21.0462 14.8472C21.2264 14.8807 21.3528 15.0088 21.4061 15.1644Z" fill="#FEE0AC"/>
<path d="M19.3351 21.5959L15.9917 16.7568L18.9623 17.9109L19.5084 21.1507C19.5478 21.3398 19.4678 21.5013 19.3351 21.5959Z" fill="#ECB76B"/>
<path d="M15.9909 16.7568V20.0976L13.1199 21.6294C12.9536 21.7169 12.7803 21.6899 12.647 21.5959L15.9909 16.7568Z" fill="#F1A341"/>
<path d="M17.8293 14.375L15.9907 16.7572V11.1758C16.1107 11.1758 16.2307 11.2228 16.3171 11.3173C16.3304 11.3309 16.3437 11.3508 16.3571 11.3714C16.3704 11.3919 16.3837 11.4119 16.3901 11.4319L17.8293 14.375Z" fill="#FFE9BA"/>
<path d="M21.3923 15.4681C21.3789 15.4951 21.3656 15.5221 21.3523 15.5491C21.332 15.5761 21.3123 15.5961 21.2926 15.6231L18.9682 17.9179L15.9976 16.7637L21.4061 15.1709C21.4061 15.1774 21.4125 15.1844 21.4125 15.1914C21.4125 15.1985 21.4195 15.2049 21.4195 15.2184C21.4195 15.2255 21.4195 15.2255 21.4195 15.2255C21.4195 15.232 21.4195 15.239 21.4195 15.2455C21.4195 15.259 21.4195 15.266 21.4195 15.279C21.4259 15.3395 21.4189 15.407 21.3923 15.4681Z" fill="#E49632"/>
<path d="M19.3346 21.5959C19.3016 21.6229 19.2616 21.6429 19.2146 21.6564C19.2083 21.6564 19.2083 21.6564 19.2013 21.6629C19.0947 21.6964 18.9747 21.6899 18.8616 21.6294L15.9907 20.0976V16.7568L19.3346 21.5959Z" fill="#E29136"/>
<path d="M15.9907 16.7568L12.6474 21.5959C12.641 21.5889 12.634 21.5824 12.6276 21.5754C12.6212 21.5689 12.6143 21.5619 12.6074 21.5548C12.601 21.5484 12.5941 21.5413 12.5807 21.5278C12.5738 21.5213 12.5674 21.5143 12.5605 21.5073C12.5535 21.5003 12.5541 21.5008 12.5541 21.4938C12.5477 21.4873 12.5407 21.4803 12.5407 21.4733C12.5274 21.4533 12.5141 21.4327 12.5077 21.4127C12.5013 21.4062 12.5013 21.3922 12.4943 21.3792C12.4879 21.3657 12.4879 21.3587 12.481 21.3457C12.4746 21.3322 12.4746 21.3122 12.4746 21.2987C12.4746 21.2922 12.4746 21.2782 12.4746 21.2717C12.4746 21.2582 12.4746 21.2447 12.4746 21.2312C12.4746 21.2042 12.4746 21.1772 12.481 21.1501L13.027 17.9104L15.9907 16.7568Z" fill="#FED891"/>
<path d="M15.9901 16.7571L10.5815 15.1643C10.5815 15.1578 10.5879 15.1508 10.5879 15.1437C10.5943 15.1302 10.5943 15.1167 10.6013 15.1102C10.6146 15.0832 10.6279 15.0632 10.6413 15.0427C10.6477 15.0292 10.6546 15.0222 10.6679 15.0092C10.6749 15.0027 10.6813 14.9887 10.6946 14.9822C10.701 14.9757 10.7149 14.9622 10.7213 14.9552C10.7276 14.9481 10.741 14.9417 10.7479 14.9346C10.7612 14.9281 10.7746 14.9141 10.7879 14.9076C10.7943 14.9011 10.8076 14.8941 10.821 14.8941C10.8412 14.8876 10.854 14.8806 10.8743 14.8736C10.8807 14.8736 10.8876 14.8671 10.9009 14.8671C10.9143 14.8606 10.934 14.8606 10.9543 14.8536L14.1649 14.3813L15.9901 16.7571Z" fill="#FFF3D9"/>
<path d="M15.9912 16.757L13.0275 17.9176L10.7031 15.6229C10.6765 15.6024 10.6631 15.5759 10.6434 15.5489C10.6301 15.5219 10.6103 15.4949 10.6034 15.4679C10.597 15.4543 10.5901 15.4408 10.5901 15.4273C10.5768 15.3868 10.5698 15.3398 10.5698 15.2993C10.5698 15.2858 10.5698 15.2723 10.5698 15.2588C10.5698 15.2388 10.5698 15.2253 10.5768 15.2047C10.5768 15.1982 10.5832 15.1912 10.5832 15.1777C10.5832 15.1712 10.5896 15.1642 10.5896 15.1577L15.9912 16.757Z" fill="#ECB76B"/>
<g style="mix-blend-mode:hue">
<rect y="-1.06641" width="32.5333" height="34.1333" fill="#54250B"/>
</g>
</g>
<defs>
<linearGradient id="paint0_linear_4250_19157" x1="16.2261" y1="1.67228" x2="20.4367" y2="1.67228" gradientUnits="userSpaceOnUse">
<stop stop-color="#FEE998"/>
<stop offset="1" stop-color="#FCC15B"/>
</linearGradient>
<linearGradient id="paint1_linear_4250_19157" x1="6.86166" y1="4.93608" x2="11.1096" y2="1.41809" gradientUnits="userSpaceOnUse">
<stop stop-color="#FEE998"/>
<stop offset="1" stop-color="#FCC15B"/>
</linearGradient>
<linearGradient id="paint2_linear_4250_19157" x1="4.1556" y1="9.57246" x2="1.73835" y2="13.4916" gradientUnits="userSpaceOnUse">
<stop stop-color="#FCC15B"/>
<stop offset="1" stop-color="#FEE998"/>
</linearGradient>
<linearGradient id="paint3_linear_4250_19157" x1="3.04157" y1="23.7147" x2="7.19581" y2="26.4104" gradientUnits="userSpaceOnUse">
<stop stop-color="#FFC05F"/>
<stop offset="1" stop-color="#ED892B"/>
</linearGradient>
<linearGradient id="paint4_linear_4250_19157" x1="2.57175" y1="19.0363" x2="3.32486" y2="23.7244" gradientUnits="userSpaceOnUse">
<stop stop-color="#FCC15B"/>
<stop offset="1" stop-color="#FEE998"/>
</linearGradient>
<linearGradient id="paint5_linear_4250_19157" x1="11.2263" y1="30.3536" x2="15.2964" y2="31.2462" gradientUnits="userSpaceOnUse">
<stop stop-color="#FEAC3E"/>
<stop offset="1" stop-color="#F08223"/>
</linearGradient>
<linearGradient id="paint6_linear_4250_19157" x1="7.07208" y1="27.1004" x2="10.8378" y2="30.141" gradientUnits="userSpaceOnUse">
<stop stop-color="#FFA135"/>
<stop offset="1" stop-color="#FEB431"/>
</linearGradient>
<linearGradient id="paint7_linear_4250_19157" x1="24.7431" y1="27.1098" x2="20.9845" y2="30.3027" gradientUnits="userSpaceOnUse">
<stop stop-color="#FFAA3D"/>
<stop offset="1" stop-color="#ED8B1C"/>
</linearGradient>
<linearGradient id="paint8_linear_4250_19157" x1="16.1257" y1="30.6151" x2="20.8687" y2="30.355" gradientUnits="userSpaceOnUse">
<stop stop-color="#FF962D"/>
<stop offset="1" stop-color="#E56005"/>
</linearGradient>
<linearGradient id="paint9_linear_4250_19157" x1="29.6517" y1="18.9656" x2="28.6737" y2="23.6645" gradientUnits="userSpaceOnUse">
<stop stop-color="#FDBD41"/>
<stop offset="1" stop-color="#FEB334"/>
</linearGradient>
<linearGradient id="paint10_linear_4250_19157" x1="30.9016" y1="19.794" x2="26.225" y2="27.7877" gradientUnits="userSpaceOnUse">
<stop stop-color="#F6942F"/>
<stop offset="1" stop-color="#EA6F11"/>
</linearGradient>
<linearGradient id="paint11_linear_4250_19157" x1="27.6922" y1="9.71733" x2="30.5028" y2="13.8275" gradientUnits="userSpaceOnUse">
<stop stop-color="#FDBD41"/>
<stop offset="1" stop-color="#FEB334"/>
</linearGradient>
<linearGradient id="paint12_linear_4250_19157" x1="29.3425" y1="18.7212" x2="30.449" y2="13.8964" gradientUnits="userSpaceOnUse">
<stop stop-color="#FD9D24"/>
<stop offset="1" stop-color="#FF9515"/>
</linearGradient>
<linearGradient id="paint13_linear_4250_19157" x1="25.3091" y1="5.06128" x2="21.0222" y2="3.02057" gradientUnits="userSpaceOnUse">
<stop stop-color="#FCC15B"/>
<stop offset="1" stop-color="#FEE998"/>
</linearGradient>
<linearGradient id="paint14_linear_4250_19157" x1="25.3305" y1="4.79651" x2="27.408" y2="9.35277" gradientUnits="userSpaceOnUse">
<stop stop-color="#FF9515"/>
<stop offset="1" stop-color="#FFBE41"/>
</linearGradient>
<radialGradient id="paint15_radial_4250_19157" cx="0" cy="0" r="1" gradientUnits="userSpaceOnUse" gradientTransform="translate(16.0012 16.4299) scale(11.1979 11.3466)">
<stop offset="0.8428" stop-color="#FAAA31"/>
<stop offset="1" stop-color="#F57E16"/>
</radialGradient>
<linearGradient id="paint16_linear_4250_19157" x1="16.0015" y1="4.06961" x2="16.0015" y2="28.7901" gradientUnits="userSpaceOnUse">
<stop offset="0.0226" stop-color="#FD9A18"/>
<stop offset="0.3764" stop-color="#FEC752"/>
<stop offset="1" stop-color="#FFA422"/>
</linearGradient>
<linearGradient id="paint17_linear_4250_19157" x1="16.0018" y1="2.45183" x2="16.0018" y2="30.3257" gradientUnits="userSpaceOnUse">
<stop stop-color="#FFDB69"/>
<stop offset="0.1799" stop-color="#FEE7B0"/>
<stop offset="0.24" stop-color="#FEE9BA"/>
<stop offset="0.2592" stop-color="#FDECD0"/>
<stop offset="0.2953" stop-color="#FEDA92"/>
<stop offset="0.3254" stop-color="#FFCD64"/>
<stop offset="0.3405" stop-color="#FFC853"/>
<stop offset="0.7613" stop-color="#FF9114"/>
<stop offset="1" stop-color="#F57E16"/>
</linearGradient>
<clipPath id="clip0_4250_19157">
<rect width="32" height="32" fill="white"/>
</clipPath>
</defs>
</svg>
