<svg width="60" height="60" viewBox="0 0 60 60" fill="none" xmlns="http://www.w3.org/2000/svg">
  <g clip-path="url(#clip0_499_38793)">
    <path d="M27.3987 0.981707L21.4038 6.27106H30.0012V2.09766e-05C29.0734 -0.0030183 28.1445 0.32421 27.3987 0.981707Z" fill="#FDF0BC" />
    <path d="M32.5724 0.975607C31.8346 0.328242 30.9197 0.00303927 30.0039 0V6.27104H38.6013L32.5724 0.975607Z" fill="url(#paint0_linear_499_38793)" />
    <path d="M9.08931 9.65414L7.85254 17.611L14.4383 12.0116L10.46 7.20752C9.74718 7.8093 9.24328 8.66536 9.08931 9.65414Z" fill="#FDF0BC" />
    <path d="M13.0479 6.28179C12.0721 6.26558 11.1643 6.61307 10.4614 7.20776L14.4397 12.0118L21.0254 6.41248L13.0479 6.28179Z" fill="url(#paint1_linear_499_38793)" />
    <path d="M0.564794 28.2243L4.66402 35.1255L6.15674 26.5466L0.0628885 25.4565C-0.10208 26.3825 0.05489 27.3662 0.564794 28.2243Z" fill="#FDF0BC" />
    <path d="M1.45721 23.0622C0.700357 23.6862 0.225446 24.5433 0.0634766 25.4561L6.15833 26.5452L7.65105 17.9663L1.45721 23.0622Z" fill="url(#paint2_linear_499_38793)" />
    <path d="M5.81538 48.0019L13.334 50.6177L9.03577 43.0732L3.67578 46.2088C4.13669 47.0253 4.88055 47.6767 5.81538 48.0019Z" fill="url(#paint3_linear_499_38793)" />
    <path d="M3.22224 43.4669C3.03728 44.4374 3.21724 45.4039 3.67216 46.2093L9.03215 43.0738L4.73396 35.5293L3.22224 43.4669Z" fill="url(#paint4_linear_499_38793)" />
    <path d="M22.381 59.7332L29.7996 56.8408L21.7211 53.8613L19.6045 59.7545C20.4753 60.0787 21.4591 60.0929 22.381 59.7332Z" fill="url(#paint5_linear_499_38793)" />
    <path d="M17.5189 57.9462C17.9928 58.8103 18.7436 59.4334 19.6035 59.7535L21.7201 53.8604L13.6416 50.8809L17.5189 57.9462Z" fill="url(#paint6_linear_499_38793)" />
    <path d="M42.5154 57.9294L46.3636 50.8813L38.2852 53.8609L40.4018 59.754C41.2736 59.4349 42.0364 58.8058 42.5154 57.9294Z" fill="url(#paint7_linear_499_38793)" />
    <path d="M37.6567 59.7267C38.5685 60.0802 39.5383 60.0681 40.4002 59.753L38.2836 53.8599L30.2051 56.8394L37.6567 59.7267Z" fill="url(#paint8_linear_499_38793)" />
    <path d="M56.7926 43.4345L55.2699 35.5293L50.9717 43.0738L56.3317 46.2093C56.7976 45.3958 56.9825 44.4172 56.7926 43.4345Z" fill="url(#paint9_linear_499_38793)" />
    <path d="M54.2134 47.9756C55.1352 47.6524 55.8711 47.0111 56.332 46.2088L50.972 43.0732L46.6738 50.6177L54.2134 47.9756Z" fill="url(#paint10_linear_499_38793)" />
    <path d="M58.5363 23.0297L52.3545 17.9663L53.8472 26.5452L59.9421 25.4561C59.7851 24.5301 59.3052 23.6599 58.5363 23.0297Z" fill="url(#paint11_linear_499_38793)" />
    <path d="M59.4396 28.1899C59.9415 27.3419 60.0985 26.3714 59.9415 25.4565L53.8467 26.5456L55.3394 35.1245L59.4396 28.1899Z" fill="url(#paint12_linear_499_38793)" />
    <path d="M46.927 6.26337L38.9795 6.41026L45.5653 12.0096L49.5435 7.20554C48.8346 6.59971 47.9158 6.24513 46.927 6.26337Z" fill="url(#paint13_linear_499_38793)" />
    <path d="M50.8934 9.62828C50.7394 8.65166 50.2445 7.80674 49.5447 7.20801L45.5664 12.0121L52.1522 17.6114L50.8934 9.62828Z" fill="url(#paint14_linear_499_38793)" />
    <path d="M30.0024 52.0811C41.5982 52.0811 50.9984 42.556 50.9984 30.8062C50.9984 19.0564 41.5982 9.53125 30.0024 9.53125C18.4066 9.53125 9.00635 19.0564 9.00635 30.8062C9.00635 42.556 18.4066 52.0811 30.0024 52.0811Z" fill="url(#paint15_radial_499_38793)" />
    <path d="M30.003 7.63086C17.3714 7.63086 7.13135 18.0059 7.13135 30.8053C7.13135 43.6047 17.3714 53.9808 30.003 53.9808C42.6347 53.9808 52.8747 43.6047 52.8747 30.8053C52.8747 18.0059 42.6347 7.63086 30.003 7.63086ZM30.003 52.0782C18.4082 52.0782 9.00899 42.5542 9.00899 30.8053C9.00899 19.0565 18.4082 9.53243 30.003 9.53243C41.5979 9.53243 50.9971 19.0565 50.9971 30.8053C50.9971 42.5542 41.5979 52.0782 30.003 52.0782Z" fill="url(#paint16_linear_499_38793)" />
    <path d="M30.003 4.67334C15.7597 4.67334 4.21387 16.3725 4.21387 30.805C4.21387 45.2375 15.7597 56.9367 30.003 56.9367C44.2463 56.9367 55.7922 45.2375 55.7922 30.805C55.7922 16.3725 44.2463 4.67334 30.003 4.67334ZM30.003 53.9694C17.3774 53.9694 7.14232 43.5983 7.14232 30.805C7.14232 18.0117 17.3774 7.6417 30.003 7.6417C42.6286 7.6417 52.8637 18.0127 52.8637 30.806C52.8637 43.5994 42.6286 53.9694 30.003 53.9694Z" fill="url(#paint17_linear_499_38793)" />
    <path d="M24.2132 41.4666C23.8633 41.4666 23.5384 41.3531 23.2514 41.1505C23.2144 41.1252 23.1894 41.0998 23.1644 41.0745C23.1394 41.0624 23.1264 41.037 23.1144 41.0239C23.0644 40.9854 23.0394 40.9479 23.0025 40.9104C22.9775 40.8851 22.9645 40.8597 22.9405 40.8344L22.9285 40.8223C22.9035 40.7969 22.8905 40.7716 22.8785 40.7463L22.8535 40.7078C22.8035 40.6318 22.7665 40.5558 22.7285 40.4798C22.7165 40.4423 22.7035 40.4039 22.6905 40.3664C22.6785 40.3279 22.6655 40.2782 22.6535 40.2397C22.6405 40.1891 22.6285 40.1263 22.6155 40.0624C22.6155 40.0371 22.6035 39.9996 22.6035 39.9743C22.6035 39.9236 22.5915 39.873 22.5915 39.8223C22.5915 39.7342 22.6035 39.645 22.6165 39.5437L23.5783 33.8745L19.5191 29.8626C19.4441 29.7866 19.3691 29.6985 19.3072 29.6094C19.2322 29.4959 19.1822 29.4067 19.1452 29.3054C19.1332 29.2679 19.1082 29.2173 19.0952 29.1535C19.0572 29.0015 19.0332 28.8495 19.0332 28.6854C19.0332 28.6348 19.0332 28.5973 19.0332 28.5466C19.0332 28.4706 19.0452 28.3947 19.0702 28.3187C19.0702 28.3065 19.0822 28.2812 19.0822 28.268C19.0952 28.2295 19.0952 28.192 19.1072 28.1546C19.1072 28.1424 19.1192 28.1161 19.1322 28.0786C19.1442 28.0401 19.1572 28.0026 19.1822 27.9651C19.2192 27.8891 19.2572 27.8131 19.3191 27.725C19.3441 27.6744 19.3811 27.6369 19.4191 27.5984C19.4191 27.5984 19.4191 27.5862 19.4311 27.5862L19.6311 27.257H19.8061C19.8311 27.2438 19.8431 27.2316 19.868 27.2185C19.893 27.2063 19.943 27.181 19.98 27.1556C20.03 27.1303 20.092 27.105 20.167 27.0797C20.192 27.0675 20.229 27.0543 20.267 27.0543C20.317 27.0422 20.367 27.029 20.4289 27.0158L26.0489 26.1932L28.5214 21.068C28.7964 20.4986 29.3583 20.144 29.9821 20.144C30.4321 20.144 30.869 20.3335 31.1809 20.6627C31.2309 20.7256 31.2809 20.7762 31.3179 20.84C31.3679 20.916 31.4179 20.992 31.4549 21.068L33.9654 26.2054L39.5723 27.028C40.1972 27.1161 40.7091 27.5599 40.8961 28.1667C40.9091 28.2052 40.9211 28.2295 40.9211 28.268C40.9211 28.2802 40.9211 28.2802 40.9331 28.2934C40.9451 28.3319 40.9581 28.3693 40.9581 28.42C40.9581 28.4321 40.9581 28.4321 40.9581 28.4453C40.9701 28.496 40.9701 28.5335 40.9701 28.5841C40.9831 28.8242 40.9451 29.0775 40.8451 29.3054C40.8071 29.4067 40.7581 29.4949 40.6951 29.584L40.6821 29.5962C40.6201 29.6843 40.5452 29.7735 40.4702 29.8495L36.4109 33.8613L37.3727 39.5174C37.4727 40.1374 37.2358 40.7574 36.7229 41.1373C36.5979 41.2255 36.4479 41.3146 36.298 41.3653C36.285 41.3653 36.273 41.3784 36.248 41.3784C36.086 41.4291 35.923 41.4544 35.7611 41.4544C35.4991 41.4544 35.2362 41.3916 34.9992 41.265L29.9791 38.5945L24.9591 41.265C24.7371 41.4038 24.4752 41.4666 24.2132 41.4666Z" fill="#DF771E" />
    <path d="M29.9815 20.9541V31.4193L26.5342 26.9526L29.2317 21.4232C29.3946 21.1192 29.6946 20.9541 29.9815 20.9541Z" fill="#FFFAF6" />
    <path d="M40.1362 28.4333L29.9951 31.4198L33.4415 26.9531L39.4613 27.8386C39.7993 27.9014 40.0362 28.1415 40.1362 28.4333Z" fill="#FEE0AC" />
    <path d="M36.2532 40.4917L29.9844 31.4185L35.5543 33.5824L36.5781 39.6569C36.6521 40.0115 36.5021 40.3144 36.2532 40.4917Z" fill="#ECB76B" />
    <path d="M29.9832 31.4185V37.6824L24.6002 40.5545C24.2883 40.7186 23.9633 40.668 23.7134 40.4917L29.9832 31.4185Z" fill="#F1A341" />
    <path d="M33.4303 26.9526L29.9829 31.4193V20.9541C30.2079 20.9541 30.4328 21.0422 30.5948 21.2195C30.6198 21.2449 30.6448 21.2823 30.6698 21.3208C30.6948 21.3593 30.7198 21.3968 30.7318 21.4343L33.4303 26.9526Z" fill="#FFE9BA" />
    <path d="M40.1102 29.0025C40.0852 29.0532 40.0602 29.1038 40.0352 29.1545C39.9972 29.2051 39.9602 29.2426 39.9232 29.2933L35.5651 33.5959L29.9951 31.4319L40.1362 28.4453C40.1362 28.4575 40.1482 28.4706 40.1482 28.4838C40.1482 28.497 40.1612 28.5091 40.1612 28.5345C40.1612 28.5476 40.1612 28.5476 40.1612 28.5476C40.1612 28.5598 40.1612 28.573 40.1612 28.5851C40.1612 28.6104 40.1612 28.6236 40.1612 28.6479C40.1732 28.7614 40.1602 28.888 40.1102 29.0025Z" fill="#E49632" />
    <path d="M36.2527 40.4917C36.1907 40.5424 36.1158 40.5798 36.0278 40.6052C36.0158 40.6052 36.0158 40.6052 36.0028 40.6173C35.8028 40.6801 35.5779 40.668 35.3659 40.5545L29.9829 37.6824V31.4185L36.2527 40.4917Z" fill="#E29136" />
    <path d="M29.9824 31.4185L23.7136 40.4917C23.7016 40.4785 23.6886 40.4664 23.6766 40.4532C23.6646 40.441 23.6516 40.4279 23.6386 40.4147C23.6266 40.4026 23.6136 40.3894 23.5886 40.3641C23.5756 40.3519 23.5636 40.3387 23.5506 40.3256C23.5376 40.3124 23.5386 40.3134 23.5386 40.3002C23.5266 40.2881 23.5136 40.2749 23.5136 40.2617C23.4886 40.2242 23.4636 40.1858 23.4516 40.1483C23.4396 40.1361 23.4396 40.1098 23.4266 40.0855C23.4146 40.0601 23.4146 40.047 23.4016 40.0226C23.3896 39.9973 23.3896 39.9598 23.3896 39.9345C23.3896 39.9223 23.3896 39.896 23.3896 39.8839C23.3896 39.8585 23.3896 39.8332 23.3896 39.8079C23.3896 39.7572 23.3896 39.7066 23.4016 39.6559L24.4255 33.5814L29.9824 31.4185Z" fill="#FED891" />
    <path d="M29.9809 31.4194L19.8398 28.4328C19.8398 28.4207 19.8518 28.4075 19.8518 28.3943C19.8638 28.369 19.8638 28.3437 19.8768 28.3315C19.9018 28.2808 19.9268 28.2434 19.9518 28.2049C19.9638 28.1795 19.9768 28.1664 20.0018 28.1421C20.0148 28.1299 20.0268 28.1036 20.0518 28.0914C20.0638 28.0792 20.0898 28.0539 20.1018 28.0407C20.1138 28.0276 20.1388 28.0154 20.1518 28.0022C20.1768 27.9901 20.2018 27.9638 20.2268 27.9516C20.2388 27.9394 20.2638 27.9263 20.2888 27.9263C20.3268 27.9141 20.3507 27.9009 20.3887 27.8878C20.4007 27.8878 20.4137 27.8756 20.4387 27.8756C20.4637 27.8635 20.5007 27.8635 20.5387 27.8503L26.5586 26.9648L29.9809 31.4194Z" fill="#FFF3D9" />
    <path d="M29.9834 31.4192L24.4265 33.5953L20.0683 29.2927C20.0183 29.2542 19.9933 29.2045 19.9563 29.1539C19.9313 29.1032 19.8943 29.0526 19.8813 29.0019C19.8693 28.9766 19.8564 28.9513 19.8564 28.9259C19.8314 28.85 19.8184 28.7618 19.8184 28.6858C19.8184 28.6605 19.8184 28.6352 19.8184 28.6099C19.8184 28.5724 19.8184 28.547 19.8314 28.5085C19.8314 28.4964 19.8434 28.4832 19.8434 28.4579C19.8434 28.4457 19.8554 28.4326 19.8554 28.4204L29.9834 31.4192Z" fill="#ECB76B" />
  </g>
  <defs>
    <linearGradient id="paint0_linear_499_38793" x1="30.4243" y1="3.13552" x2="38.3191" y2="3.13552" gradientUnits="userSpaceOnUse">
      <stop stop-color="#FEE998" />
      <stop offset="1" stop-color="#FCC15B" />
    </linearGradient>
    <linearGradient id="paint1_linear_499_38793" x1="12.8653" y1="9.25497" x2="20.8302" y2="2.65873" gradientUnits="userSpaceOnUse">
      <stop stop-color="#FEE998" />
      <stop offset="1" stop-color="#FCC15B" />
    </linearGradient>
    <linearGradient id="paint2_linear_499_38793" x1="7.79206" y1="17.9484" x2="3.25971" y2="25.2968" gradientUnits="userSpaceOnUse">
      <stop stop-color="#FCC15B" />
      <stop offset="1" stop-color="#FEE998" />
    </linearGradient>
    <linearGradient id="paint3_linear_499_38793" x1="5.70288" y1="44.4655" x2="13.4921" y2="49.52" gradientUnits="userSpaceOnUse">
      <stop stop-color="#FFC05F" />
      <stop offset="1" stop-color="#ED892B" />
    </linearGradient>
    <linearGradient id="paint4_linear_499_38793" x1="4.82209" y1="35.6935" x2="6.23418" y2="44.4838" gradientUnits="userSpaceOnUse">
      <stop stop-color="#FCC15B" />
      <stop offset="1" stop-color="#FEE998" />
    </linearGradient>
    <linearGradient id="paint5_linear_499_38793" x1="21.0497" y1="56.9129" x2="28.6811" y2="58.5865" gradientUnits="userSpaceOnUse">
      <stop stop-color="#FEAC3E" />
      <stop offset="1" stop-color="#F08223" />
    </linearGradient>
    <linearGradient id="paint6_linear_499_38793" x1="13.2604" y1="50.8137" x2="20.321" y2="56.5148" gradientUnits="userSpaceOnUse">
      <stop stop-color="#FFA135" />
      <stop offset="1" stop-color="#FEB431" />
    </linearGradient>
    <linearGradient id="paint7_linear_499_38793" x1="46.3939" y1="50.8309" x2="39.3466" y2="56.8175" gradientUnits="userSpaceOnUse">
      <stop stop-color="#FFAA3D" />
      <stop offset="1" stop-color="#ED8B1C" />
    </linearGradient>
    <linearGradient id="paint8_linear_499_38793" x1="30.2357" y1="57.4035" x2="39.1288" y2="56.9159" gradientUnits="userSpaceOnUse">
      <stop stop-color="#FF962D" />
      <stop offset="1" stop-color="#E56005" />
    </linearGradient>
    <linearGradient id="paint9_linear_499_38793" x1="55.5967" y1="35.561" x2="53.7629" y2="44.3713" gradientUnits="userSpaceOnUse">
      <stop stop-color="#FDBD41" />
      <stop offset="1" stop-color="#FEB334" />
    </linearGradient>
    <linearGradient id="paint10_linear_499_38793" x1="57.9407" y1="37.1142" x2="49.1721" y2="52.1023" gradientUnits="userSpaceOnUse">
      <stop stop-color="#F6942F" />
      <stop offset="1" stop-color="#EA6F11" />
    </linearGradient>
    <linearGradient id="paint11_linear_499_38793" x1="51.9229" y1="18.22" x2="57.1927" y2="25.9265" gradientUnits="userSpaceOnUse">
      <stop stop-color="#FDBD41" />
      <stop offset="1" stop-color="#FEB334" />
    </linearGradient>
    <linearGradient id="paint12_linear_499_38793" x1="55.0172" y1="35.1025" x2="57.0917" y2="26.0561" gradientUnits="userSpaceOnUse">
      <stop stop-color="#FD9D24" />
      <stop offset="1" stop-color="#FF9515" />
    </linearGradient>
    <linearGradient id="paint13_linear_499_38793" x1="47.4546" y1="9.48948" x2="39.4166" y2="5.66315" gradientUnits="userSpaceOnUse">
      <stop stop-color="#FCC15B" />
      <stop offset="1" stop-color="#FEE998" />
    </linearGradient>
    <linearGradient id="paint14_linear_499_38793" x1="47.4943" y1="8.99351" x2="51.3897" y2="17.5365" gradientUnits="userSpaceOnUse">
      <stop stop-color="#FF9515" />
      <stop offset="1" stop-color="#FFBE41" />
    </linearGradient>
    <radialGradient id="paint15_radial_499_38793" cx="0" cy="0" r="1" gradientUnits="userSpaceOnUse" gradientTransform="translate(30.0025 30.8057) scale(20.996 21.2749)">
      <stop offset="0.8428" stop-color="#FAAA31" />
      <stop offset="1" stop-color="#F57E16" />
    </radialGradient>
    <linearGradient id="paint16_linear_499_38793" x1="30.0032" y1="7.63046" x2="30.0032" y2="53.9814" gradientUnits="userSpaceOnUse">
      <stop offset="0.0226" stop-color="#FD9A18" />
      <stop offset="0.3764" stop-color="#FEC752" />
      <stop offset="1" stop-color="#FFA422" />
    </linearGradient>
    <linearGradient id="paint17_linear_499_38793" x1="30.0032" y1="4.59675" x2="30.0032" y2="56.8604" gradientUnits="userSpaceOnUse">
      <stop stop-color="#FFDB69" />
      <stop offset="0.1799" stop-color="#FEE7B0" />
      <stop offset="0.24" stop-color="#FEE9BA" />
      <stop offset="0.2592" stop-color="#FDECD0" />
      <stop offset="0.2953" stop-color="#FEDA92" />
      <stop offset="0.3254" stop-color="#FFCD64" />
      <stop offset="0.3405" stop-color="#FFC853" />
      <stop offset="0.7613" stop-color="#FF9114" />
      <stop offset="1" stop-color="#F57E16" />
    </linearGradient>
    <clipPath id="clip0_499_38793">
      <rect width="60" height="60" fill="white" />
    </clipPath>
  </defs>
</svg>