<svg width="32" height="33" viewBox="0 0 32 33" fill="none" xmlns="http://www.w3.org/2000/svg">
<g clip-path="url(#clip0_4249_9407)">
<path d="M14.6128 1.02358L11.4155 3.84456H16.0008V0.500011C15.506 0.49839 15.0106 0.672912 14.6128 1.02358Z" fill="#FDF0BC"/>
<path d="M17.3718 1.02032C16.9783 0.675062 16.4904 0.501621 16.002 0.5V3.84455H20.5872L17.3718 1.02032Z" fill="url(#paint0_linear_4249_9407)"/>
<path d="M4.8476 5.6491L4.18799 9.89274L7.70039 6.90641L5.57866 4.34424C5.19846 4.66519 4.92972 5.12175 4.8476 5.6491Z" fill="#FDF0BC"/>
<path d="M6.95906 3.85039C6.43863 3.84174 5.95445 4.02707 5.57959 4.34424L7.70132 6.90641L11.2137 3.92009L6.95906 3.85039Z" fill="url(#paint1_linear_4249_9407)"/>
<path d="M0.301223 15.5528L2.48748 19.2334L3.2836 14.658L0.0335405 14.0767C-0.0544429 14.5705 0.0292747 15.0952 0.301223 15.5528Z" fill="#FDF0BC"/>
<path d="M0.777018 12.7998C0.373361 13.1327 0.120075 13.5898 0.0336914 14.0766L3.28428 14.6574L4.0804 10.082L0.777018 12.7998Z" fill="url(#paint2_linear_4249_9407)"/>
<path d="M3.10157 26.1008L7.11148 27.4959L4.81911 23.4722L1.96045 25.1444C2.20627 25.5799 2.603 25.9274 3.10157 26.1008Z" fill="url(#paint3_linear_4249_9407)"/>
<path d="M1.7185 23.6821C1.61985 24.1997 1.71583 24.7152 1.95845 25.1447L4.81711 23.4725L2.52474 19.4487L1.7185 23.6821Z" fill="url(#paint4_linear_4249_9407)"/>
<path d="M11.9364 32.3577L15.8929 30.8151L11.5844 29.2261L10.4556 32.3691C10.92 32.542 11.4447 32.5496 11.9364 32.3577Z" fill="url(#paint5_linear_4249_9407)"/>
<path d="M9.34327 31.4044C9.59602 31.8653 9.99648 32.1976 10.4551 32.3683L11.5839 29.2253L7.27539 27.6362L9.34327 31.4044Z" fill="url(#paint6_linear_4249_9407)"/>
<path d="M22.6746 31.3957L24.727 27.6367L20.4185 29.2258L21.5473 32.3688C22.0123 32.1986 22.4191 31.8631 22.6746 31.3957Z" fill="url(#paint7_linear_4249_9407)"/>
<path d="M20.0836 32.3541C20.5699 32.5426 21.0871 32.5362 21.5468 32.3681L20.4179 29.2251L16.1094 30.8142L20.0836 32.3541Z" fill="url(#paint8_linear_4249_9407)"/>
<path d="M30.2895 23.6648L29.4774 19.4487L27.1851 23.4725L30.0437 25.1447C30.2922 24.7109 30.3909 24.1889 30.2895 23.6648Z" fill="url(#paint9_linear_4249_9407)"/>
<path d="M28.9137 26.0868C29.4053 25.9144 29.7978 25.5724 30.0436 25.1444L27.1849 23.4722L24.8926 27.4959L28.9137 26.0868Z" fill="url(#paint10_linear_4249_9407)"/>
<path d="M31.2193 12.7825L27.9224 10.082L28.7185 14.6574L31.9691 14.0766C31.8854 13.5827 31.6294 13.1186 31.2193 12.7825Z" fill="url(#paint11_linear_4249_9407)"/>
<path d="M31.7012 15.5344C31.9688 15.0822 32.0526 14.5646 31.9689 14.0767L28.7183 14.6575L29.5144 19.2329L31.7012 15.5344Z" fill="url(#paint12_linear_4249_9407)"/>
<path d="M25.0277 3.84069L20.7891 3.91904L24.3015 6.90536L26.4232 4.34318C26.0451 4.02007 25.5551 3.83096 25.0277 3.84069Z" fill="url(#paint13_linear_4249_9407)"/>
<path d="M27.1433 5.63505C27.0612 5.11419 26.7972 4.66356 26.424 4.34424L24.3022 6.90641L27.8147 9.89274L27.1433 5.63505Z" fill="url(#paint14_linear_4249_9407)"/>
<path d="M16.0011 28.2767C22.1855 28.2767 27.199 23.1967 27.199 16.9301C27.199 10.6636 22.1855 5.5835 16.0011 5.5835C9.81669 5.5835 4.80322 10.6636 4.80322 16.9301C4.80322 23.1967 9.81669 28.2767 16.0011 28.2767Z" fill="url(#paint15_radial_4249_9407)"/>
<path d="M16.0015 4.56982C9.26459 4.56982 3.80322 10.1032 3.80322 16.9295C3.80322 23.7559 9.26459 29.2898 16.0015 29.2898C22.7383 29.2898 28.1997 23.7559 28.1997 16.9295C28.1997 10.1032 22.7383 4.56982 16.0015 4.56982ZM16.0015 28.2751C9.81756 28.2751 4.80463 23.1956 4.80463 16.9295C4.80463 10.6635 9.81756 5.584 16.0015 5.584C22.1854 5.584 27.1983 10.6635 27.1983 16.9295C27.1983 23.1956 22.1854 28.2751 16.0015 28.2751Z" fill="url(#paint16_linear_4249_9407)"/>
<path d="M16.0018 2.99268C8.40533 2.99268 2.24756 9.23224 2.24756 16.9296C2.24756 24.6269 8.40533 30.8665 16.0018 30.8665C23.5982 30.8665 29.756 24.6269 29.756 16.9296C29.756 9.23224 23.5982 2.99268 16.0018 2.99268ZM16.0018 29.2839C9.2681 29.2839 3.8094 23.7527 3.8094 16.9296C3.8094 10.1065 9.2681 4.5758 16.0018 4.5758C22.7354 4.5758 28.1941 10.107 28.1941 16.9301C28.1941 23.7532 22.7354 29.2839 16.0018 29.2839Z" fill="url(#paint17_linear_4249_9407)"/>
<path d="M12.9136 22.6157C12.7269 22.6157 12.5536 22.5552 12.4006 22.4471C12.3809 22.4336 12.3675 22.4201 12.3542 22.4066C12.3409 22.4001 12.3339 22.3866 12.3275 22.3796C12.3009 22.359 12.2875 22.339 12.2678 22.319C12.2545 22.3055 12.2476 22.292 12.2348 22.2785L12.2284 22.272C12.215 22.2585 12.2081 22.245 12.2017 22.2315L12.1884 22.211C12.1617 22.1705 12.142 22.1299 12.1217 22.0894C12.1153 22.0694 12.1084 22.0489 12.1014 22.0289C12.095 22.0084 12.0881 21.9819 12.0817 21.9614C12.0748 21.9343 12.0684 21.9008 12.0615 21.8668C12.0615 21.8533 12.0551 21.8333 12.0551 21.8198C12.0551 21.7928 12.0487 21.7658 12.0487 21.7387C12.0487 21.6917 12.0551 21.6442 12.062 21.5902L12.575 18.5665L10.41 16.4269C10.37 16.3864 10.33 16.3394 10.297 16.2918C10.257 16.2313 10.2303 16.1838 10.2106 16.1297C10.2042 16.1097 10.1909 16.0827 10.1839 16.0487C10.1637 15.9676 10.1509 15.8866 10.1509 15.7991C10.1509 15.772 10.1509 15.752 10.1509 15.725C10.1509 15.6845 10.1573 15.644 10.1706 15.6035C10.1706 15.597 10.177 15.5835 10.177 15.5764C10.1839 15.5559 10.1839 15.5359 10.1903 15.5159C10.1903 15.5094 10.1967 15.4954 10.2037 15.4754C10.2101 15.4549 10.217 15.4349 10.2303 15.4149C10.2501 15.3744 10.2703 15.3338 10.3034 15.2868C10.3167 15.2598 10.3364 15.2398 10.3567 15.2193C10.3567 15.2193 10.3567 15.2128 10.3631 15.2128L10.4698 15.0372H10.5631C10.5764 15.0302 10.5828 15.0237 10.5961 15.0167C10.6095 15.0102 10.6361 14.9967 10.6559 14.9832C10.6825 14.9697 10.7156 14.9562 10.7556 14.9427C10.7689 14.9362 10.7886 14.9291 10.8089 14.9291C10.8356 14.9227 10.8622 14.9156 10.8953 14.9086L13.8926 14.4699L15.2113 11.7364C15.3579 11.4328 15.6576 11.2437 15.9903 11.2437C16.2303 11.2437 16.4633 11.3447 16.6297 11.5203C16.6563 11.5538 16.683 11.5808 16.7027 11.6148C16.7294 11.6554 16.756 11.6959 16.7758 11.7364L18.1147 14.4764L21.1051 14.9151C21.4384 14.9621 21.7114 15.1988 21.8111 15.5224C21.818 15.5429 21.8244 15.5559 21.8244 15.5764C21.8244 15.5829 21.8244 15.5829 21.8308 15.59C21.8372 15.6105 21.8441 15.6305 21.8441 15.6575C21.8441 15.664 21.8441 15.664 21.8441 15.671C21.8505 15.698 21.8505 15.718 21.8505 15.745C21.8575 15.8731 21.8372 16.0082 21.7839 16.1297C21.7636 16.1838 21.7375 16.2308 21.7039 16.2783L21.697 16.2848C21.6639 16.3318 21.6239 16.3794 21.5839 16.4199L19.419 18.5595L19.932 21.5761C19.9853 21.9068 19.8589 22.2375 19.5854 22.4401C19.5187 22.4871 19.4387 22.5346 19.3587 22.5616C19.3518 22.5616 19.3454 22.5687 19.3321 22.5687C19.2457 22.5957 19.1588 22.6092 19.0724 22.6092C18.9327 22.6092 18.7925 22.5757 18.6661 22.5082L15.9887 21.0839L13.3114 22.5082C13.193 22.5822 13.0533 22.6157 12.9136 22.6157Z" fill="#DF771E"/>
<path d="M15.9904 11.6758V17.2572L14.1519 14.875L15.5905 11.9259C15.6774 11.7639 15.8374 11.6758 15.9904 11.6758Z" fill="#FFFAF6"/>
<path d="M21.4061 15.6644L15.9976 17.2573L17.8356 14.875L21.0462 15.3472C21.2264 15.3807 21.3528 15.5088 21.4061 15.6644Z" fill="#FEE0AC"/>
<path d="M19.3351 22.0959L15.9917 17.2568L18.9623 18.4109L19.5084 21.6507C19.5478 21.8398 19.4678 22.0013 19.3351 22.0959Z" fill="#ECB76B"/>
<path d="M15.9909 17.2568V20.5976L13.1199 22.1294C12.9536 22.2169 12.7803 22.1899 12.647 22.0959L15.9909 17.2568Z" fill="#F1A341"/>
<path d="M17.8293 14.875L15.9907 17.2572V11.6758C16.1107 11.6758 16.2307 11.7228 16.3171 11.8173C16.3304 11.8309 16.3437 11.8508 16.3571 11.8714C16.3704 11.8919 16.3837 11.9119 16.3901 11.9319L17.8293 14.875Z" fill="#FFE9BA"/>
<path d="M21.3923 15.9681C21.3789 15.9951 21.3656 16.0221 21.3523 16.0491C21.332 16.0761 21.3123 16.0961 21.2926 16.1231L18.9682 18.4179L15.9976 17.2637L21.4061 15.6709C21.4061 15.6774 21.4125 15.6844 21.4125 15.6914C21.4125 15.6985 21.4195 15.7049 21.4195 15.7184C21.4195 15.7255 21.4195 15.7255 21.4195 15.7255C21.4195 15.732 21.4195 15.739 21.4195 15.7455C21.4195 15.759 21.4195 15.766 21.4195 15.779C21.4259 15.8395 21.4189 15.907 21.3923 15.9681Z" fill="#E49632"/>
<path d="M19.3346 22.0959C19.3016 22.1229 19.2616 22.1429 19.2146 22.1564C19.2083 22.1564 19.2083 22.1564 19.2013 22.1629C19.0947 22.1964 18.9747 22.1899 18.8616 22.1294L15.9907 20.5976V17.2568L19.3346 22.0959Z" fill="#E29136"/>
<path d="M15.9907 17.2568L12.6474 22.0959C12.641 22.0889 12.634 22.0824 12.6276 22.0754C12.6212 22.0689 12.6143 22.0619 12.6074 22.0548C12.601 22.0484 12.5941 22.0413 12.5807 22.0278C12.5738 22.0213 12.5674 22.0143 12.5605 22.0073C12.5535 22.0003 12.5541 22.0008 12.5541 21.9938C12.5477 21.9873 12.5407 21.9803 12.5407 21.9733C12.5274 21.9533 12.5141 21.9327 12.5077 21.9127C12.5013 21.9062 12.5013 21.8922 12.4943 21.8792C12.4879 21.8657 12.4879 21.8587 12.481 21.8457C12.4746 21.8322 12.4746 21.8122 12.4746 21.7987C12.4746 21.7922 12.4746 21.7782 12.4746 21.7717C12.4746 21.7582 12.4746 21.7447 12.4746 21.7312C12.4746 21.7042 12.4746 21.6772 12.481 21.6501L13.027 18.4104L15.9907 17.2568Z" fill="#FED891"/>
<path d="M15.9901 17.2571L10.5815 15.6643C10.5815 15.6578 10.5879 15.6508 10.5879 15.6437C10.5943 15.6302 10.5943 15.6167 10.6013 15.6102C10.6146 15.5832 10.6279 15.5632 10.6413 15.5427C10.6477 15.5292 10.6546 15.5222 10.6679 15.5092C10.6749 15.5027 10.6813 15.4887 10.6946 15.4822C10.701 15.4757 10.7149 15.4622 10.7213 15.4552C10.7276 15.4481 10.741 15.4417 10.7479 15.4346C10.7612 15.4281 10.7746 15.4141 10.7879 15.4076C10.7943 15.4011 10.8076 15.3941 10.821 15.3941C10.8412 15.3876 10.854 15.3806 10.8743 15.3736C10.8807 15.3736 10.8876 15.3671 10.9009 15.3671C10.9143 15.3606 10.934 15.3606 10.9543 15.3536L14.1649 14.8813L15.9901 17.2571Z" fill="#FFF3D9"/>
<path d="M15.9912 17.257L13.0275 18.4176L10.7031 16.1229C10.6765 16.1024 10.6631 16.0759 10.6434 16.0489C10.6301 16.0219 10.6103 15.9949 10.6034 15.9679C10.597 15.9543 10.5901 15.9408 10.5901 15.9273C10.5768 15.8868 10.5698 15.8398 10.5698 15.7993C10.5698 15.7858 10.5698 15.7723 10.5698 15.7588C10.5698 15.7388 10.5698 15.7253 10.5768 15.7047C10.5768 15.6982 10.5832 15.6912 10.5832 15.6777C10.5832 15.6712 10.5896 15.6642 10.5896 15.6577L15.9912 17.257Z" fill="#ECB76B"/>
<g style="mix-blend-mode:hue">
<rect y="-0.566406" width="32.5333" height="34.1333" fill="white"/>
</g>
</g>
<defs>
<linearGradient id="paint0_linear_4249_9407" x1="16.2261" y1="2.17228" x2="20.4367" y2="2.17228" gradientUnits="userSpaceOnUse">
<stop stop-color="#FEE998"/>
<stop offset="1" stop-color="#FCC15B"/>
</linearGradient>
<linearGradient id="paint1_linear_4249_9407" x1="6.86166" y1="5.43608" x2="11.1096" y2="1.91809" gradientUnits="userSpaceOnUse">
<stop stop-color="#FEE998"/>
<stop offset="1" stop-color="#FCC15B"/>
</linearGradient>
<linearGradient id="paint2_linear_4249_9407" x1="4.1556" y1="10.0725" x2="1.73835" y2="13.9916" gradientUnits="userSpaceOnUse">
<stop stop-color="#FCC15B"/>
<stop offset="1" stop-color="#FEE998"/>
</linearGradient>
<linearGradient id="paint3_linear_4249_9407" x1="3.04157" y1="24.2147" x2="7.19581" y2="26.9104" gradientUnits="userSpaceOnUse">
<stop stop-color="#FFC05F"/>
<stop offset="1" stop-color="#ED892B"/>
</linearGradient>
<linearGradient id="paint4_linear_4249_9407" x1="2.57175" y1="19.5363" x2="3.32486" y2="24.2244" gradientUnits="userSpaceOnUse">
<stop stop-color="#FCC15B"/>
<stop offset="1" stop-color="#FEE998"/>
</linearGradient>
<linearGradient id="paint5_linear_4249_9407" x1="11.2263" y1="30.8536" x2="15.2964" y2="31.7462" gradientUnits="userSpaceOnUse">
<stop stop-color="#FEAC3E"/>
<stop offset="1" stop-color="#F08223"/>
</linearGradient>
<linearGradient id="paint6_linear_4249_9407" x1="7.07208" y1="27.6004" x2="10.8378" y2="30.641" gradientUnits="userSpaceOnUse">
<stop stop-color="#FFA135"/>
<stop offset="1" stop-color="#FEB431"/>
</linearGradient>
<linearGradient id="paint7_linear_4249_9407" x1="24.7431" y1="27.6098" x2="20.9845" y2="30.8027" gradientUnits="userSpaceOnUse">
<stop stop-color="#FFAA3D"/>
<stop offset="1" stop-color="#ED8B1C"/>
</linearGradient>
<linearGradient id="paint8_linear_4249_9407" x1="16.1257" y1="31.1151" x2="20.8687" y2="30.855" gradientUnits="userSpaceOnUse">
<stop stop-color="#FF962D"/>
<stop offset="1" stop-color="#E56005"/>
</linearGradient>
<linearGradient id="paint9_linear_4249_9407" x1="29.6517" y1="19.4656" x2="28.6737" y2="24.1645" gradientUnits="userSpaceOnUse">
<stop stop-color="#FDBD41"/>
<stop offset="1" stop-color="#FEB334"/>
</linearGradient>
<linearGradient id="paint10_linear_4249_9407" x1="30.9016" y1="20.294" x2="26.225" y2="28.2877" gradientUnits="userSpaceOnUse">
<stop stop-color="#F6942F"/>
<stop offset="1" stop-color="#EA6F11"/>
</linearGradient>
<linearGradient id="paint11_linear_4249_9407" x1="27.6922" y1="10.2173" x2="30.5028" y2="14.3275" gradientUnits="userSpaceOnUse">
<stop stop-color="#FDBD41"/>
<stop offset="1" stop-color="#FEB334"/>
</linearGradient>
<linearGradient id="paint12_linear_4249_9407" x1="29.3425" y1="19.2212" x2="30.449" y2="14.3964" gradientUnits="userSpaceOnUse">
<stop stop-color="#FD9D24"/>
<stop offset="1" stop-color="#FF9515"/>
</linearGradient>
<linearGradient id="paint13_linear_4249_9407" x1="25.3091" y1="5.56128" x2="21.0222" y2="3.52057" gradientUnits="userSpaceOnUse">
<stop stop-color="#FCC15B"/>
<stop offset="1" stop-color="#FEE998"/>
</linearGradient>
<linearGradient id="paint14_linear_4249_9407" x1="25.3305" y1="5.29651" x2="27.408" y2="9.85277" gradientUnits="userSpaceOnUse">
<stop stop-color="#FF9515"/>
<stop offset="1" stop-color="#FFBE41"/>
</linearGradient>
<radialGradient id="paint15_radial_4249_9407" cx="0" cy="0" r="1" gradientUnits="userSpaceOnUse" gradientTransform="translate(16.0012 16.9299) scale(11.1979 11.3466)">
<stop offset="0.8428" stop-color="#FAAA31"/>
<stop offset="1" stop-color="#F57E16"/>
</radialGradient>
<linearGradient id="paint16_linear_4249_9407" x1="16.0015" y1="4.56961" x2="16.0015" y2="29.2901" gradientUnits="userSpaceOnUse">
<stop offset="0.0226" stop-color="#FD9A18"/>
<stop offset="0.3764" stop-color="#FEC752"/>
<stop offset="1" stop-color="#FFA422"/>
</linearGradient>
<linearGradient id="paint17_linear_4249_9407" x1="16.0018" y1="2.95183" x2="16.0018" y2="30.8257" gradientUnits="userSpaceOnUse">
<stop stop-color="#FFDB69"/>
<stop offset="0.1799" stop-color="#FEE7B0"/>
<stop offset="0.24" stop-color="#FEE9BA"/>
<stop offset="0.2592" stop-color="#FDECD0"/>
<stop offset="0.2953" stop-color="#FEDA92"/>
<stop offset="0.3254" stop-color="#FFCD64"/>
<stop offset="0.3405" stop-color="#FFC853"/>
<stop offset="0.7613" stop-color="#FF9114"/>
<stop offset="1" stop-color="#F57E16"/>
</linearGradient>
<clipPath id="clip0_4249_9407">
<rect width="32" height="32" fill="white" transform="translate(0 0.5)"/>
</clipPath>
</defs>
</svg>
