<svg width="33" height="32" viewBox="0 0 33 32" fill="none" xmlns="http://www.w3.org/2000/svg">
  <path d="M29.5 20H25.5V12.6675C26.4613 13.8534 27.7089 14.7749 29.125 15.345C29.3698 15.4393 29.6418 15.4337 29.8825 15.3293C30.1232 15.2249 30.3132 15.0301 30.4116 14.7869C30.5099 14.5437 30.5088 14.2716 30.4085 14.0293C30.3081 13.7869 30.1165 13.5937 29.875 13.4913C28.5799 12.9714 27.4706 12.0748 26.6906 10.9175C25.9106 9.76026 25.4959 8.39556 25.5 7C25.5 6.73478 25.3946 6.48043 25.2071 6.29289C25.0196 6.10536 24.7652 6 24.5 6C24.2348 6 23.9804 6.10536 23.7929 6.29289C23.6054 6.48043 23.5 6.73478 23.5 7C23.5 8.85652 22.7625 10.637 21.4497 11.9497C20.137 13.2625 18.3565 14 16.5 14C14.6435 14 12.863 13.2625 11.5503 11.9497C10.2375 10.637 9.5 8.85652 9.5 7C9.5 6.73478 9.39464 6.48043 9.20711 6.29289C9.01957 6.10536 8.76522 6 8.5 6C8.23478 6 7.98043 6.10536 7.79289 6.29289C7.60536 6.48043 7.5 6.73478 7.5 7C7.50413 8.39556 7.08938 9.76026 6.3094 10.9175C5.52942 12.0748 4.42012 12.9714 3.125 13.4913C2.88349 13.5937 2.6919 13.7869 2.59154 14.0293C2.49117 14.2716 2.49006 14.5437 2.58845 14.7869C2.68683 15.0301 2.87684 15.2249 3.1175 15.3293C3.35817 15.4337 3.63021 15.4393 3.875 15.345C5.29115 14.7749 6.53871 13.8534 7.5 12.6675V20H3.5C3.23478 20 2.98043 20.1054 2.79289 20.2929C2.60536 20.4804 2.5 20.7348 2.5 21C2.5 21.2652 2.60536 21.5196 2.79289 21.7071C2.98043 21.8946 3.23478 22 3.5 22H7.5V25C7.5 25.2652 7.60536 25.5196 7.79289 25.7071C7.98043 25.8946 8.23478 26 8.5 26C8.76522 26 9.01957 25.8946 9.20711 25.7071C9.39464 25.5196 9.5 25.2652 9.5 25V22H23.5V25C23.5 25.2652 23.6054 25.5196 23.7929 25.7071C23.9804 25.8946 24.2348 26 24.5 26C24.7652 26 25.0196 25.8946 25.2071 25.7071C25.3946 25.5196 25.5 25.2652 25.5 25V22H29.5C29.7652 22 30.0196 21.8946 30.2071 21.7071C30.3946 21.5196 30.5 21.2652 30.5 21C30.5 20.7348 30.3946 20.4804 30.2071 20.2929C30.0196 20.1054 29.7652 20 29.5 20ZM18.5 15.775V20H14.5V15.775C15.8165 16.075 17.1835 16.075 18.5 15.775ZM9.5 12.65C10.316 13.6585 11.3391 14.4799 12.5 15.0588V20H9.5V12.65ZM20.5 20V15.06C21.6609 14.4812 22.684 13.6597 23.5 12.6512V20H20.5Z" fill="url(#paint0_linear_4177_4146)" />
  <defs>
    <linearGradient id="paint0_linear_4177_4146" x1="20.8449" y1="7.37907" x2="15.8209" y2="24.7808" gradientUnits="userSpaceOnUse">
      <stop stop-color="#F97239" />
      <stop offset="0.409872" stop-color="#ED2F8A" />
      <stop offset="0.868296" stop-color="#C26CEA" />
      <stop offset="1" stop-color="#8886EE" />
    </linearGradient>
  </defs>
</svg>