<svg width="25" height="24" viewBox="0 0 25 24" fill="none" xmlns="http://www.w3.org/2000/svg">
  <path d="M10 20.25C10 20.5467 9.91203 20.8367 9.7472 21.0834C9.58238 21.33 9.34811 21.5223 9.07403 21.6358C8.79994 21.7494 8.49834 21.7791 8.20736 21.7212C7.91639 21.6633 7.64912 21.5204 7.43934 21.3107C7.22956 21.1009 7.0867 20.8336 7.02882 20.5426C6.97094 20.2517 7.00065 19.9501 7.11418 19.676C7.22771 19.4019 7.41997 19.1676 7.66665 19.0028C7.91332 18.838 8.20333 18.75 8.5 18.75C8.89782 18.75 9.27936 18.908 9.56066 19.1893C9.84196 19.4706 10 19.8522 10 20.25ZM18.25 18.75C17.9533 18.75 17.6633 18.838 17.4166 19.0028C17.17 19.1676 16.9777 19.4019 16.8642 19.676C16.7506 19.9501 16.7209 20.2517 16.7788 20.5426C16.8367 20.8336 16.9796 21.1009 17.1893 21.3107C17.3991 21.5204 17.6664 21.6633 17.9574 21.7212C18.2483 21.7791 18.5499 21.7494 18.824 21.6358C19.0981 21.5223 19.3324 21.33 19.4972 21.0834C19.662 20.8367 19.75 20.5467 19.75 20.25C19.75 19.8522 19.592 19.4706 19.3107 19.1893C19.0294 18.908 18.6478 18.75 18.25 18.75ZM22.7228 6.95062L20.3191 15.6019C20.1869 16.0745 19.9042 16.4911 19.5139 16.7885C19.1236 17.0859 18.647 17.2479 18.1562 17.25H8.89C8.39784 17.2498 7.91926 17.0886 7.52725 16.791C7.13523 16.4935 6.8513 16.0758 6.71875 15.6019L3.43 3.75H1.75C1.55109 3.75 1.36032 3.67098 1.21967 3.53033C1.07902 3.38968 1 3.19891 1 3C1 2.80109 1.07902 2.61032 1.21967 2.46967C1.36032 2.32902 1.55109 2.25 1.75 2.25H4C4.16397 2.24997 4.32343 2.30367 4.45398 2.40289C4.58452 2.50211 4.67895 2.64138 4.72281 2.79938L5.61156 6H22C22.1156 5.99998 22.2297 6.02669 22.3333 6.07805C22.4369 6.1294 22.5272 6.20401 22.5972 6.29605C22.6671 6.38809 22.7149 6.49506 22.7367 6.60861C22.7585 6.72216 22.7537 6.83922 22.7228 6.95062ZM21.0128 7.5H6.02875L8.16719 15.2006C8.21105 15.3586 8.30548 15.4979 8.43602 15.5971C8.56657 15.6963 8.72603 15.75 8.89 15.75H18.1562C18.3202 15.75 18.4797 15.6963 18.6102 15.5971C18.7408 15.4979 18.8352 15.3586 18.8791 15.2006L21.0128 7.5Z" fill="url(#paint0_linear_4219_9259)" />
  <defs>
    <linearGradient id="paint0_linear_4219_9259" x1="18.2189" y1="11.0714" x2="6.14831" y2="16.2296" gradientUnits="userSpaceOnUse">
      <stop stop-color="#F97239" />
      <stop offset="0.409872" stop-color="#ED2F8A" />
      <stop offset="0.727403" stop-color="#BB8EEF" />
      <stop offset="1" stop-color="#2E8AEB" />
    </linearGradient>
  </defs>
</svg>