<svg width="16" height="16" viewBox="0 0 16 16" fill="none" xmlns="http://www.w3.org/2000/svg">
  <path d="M14.5306 5.03081L6.5306 13.0308C6.46092 13.1007 6.37813 13.1562 6.28696 13.1941C6.1958 13.2319 6.09806 13.2514 5.99935 13.2514C5.90064 13.2514 5.8029 13.2319 5.71173 13.1941C5.62057 13.1562 5.53778 13.1007 5.4681 13.0308L1.9681 9.53081C1.89833 9.46105 1.84299 9.37823 1.80524 9.28707C1.76748 9.19592 1.74805 9.09823 1.74805 8.99956C1.74805 8.9009 1.76748 8.8032 1.80524 8.71205C1.84299 8.6209 1.89833 8.53808 1.9681 8.46831C2.03786 8.39855 2.12069 8.34321 2.21184 8.30545C2.30299 8.26769 2.40069 8.24826 2.49935 8.24826C2.59801 8.24826 2.69571 8.26769 2.78686 8.30545C2.87801 8.34321 2.96083 8.39855 3.0306 8.46831L5.99997 11.4377L13.4693 3.96956C13.6102 3.82867 13.8013 3.74951 14.0006 3.74951C14.1999 3.74951 14.391 3.82867 14.5318 3.96956C14.6727 4.11046 14.7519 4.30156 14.7519 4.50081C14.7519 4.70007 14.6727 4.89117 14.5318 5.03206L14.5306 5.03081Z" fill="#07B195" />
</svg>