<svg width="33" height="32" viewBox="0 0 33 32" fill="none" xmlns="http://www.w3.org/2000/svg">
  <path d="M14.4363 6.57875C14.2015 6.3445 13.9114 6.17318 13.5929 6.0806C13.2743 5.98802 12.9376 5.97716 12.6138 6.04903C12.2899 6.12089 11.9894 6.27317 11.7399 6.49181C11.4905 6.71044 11.3001 6.98839 11.1863 7.3L4.62509 25.3475C4.51731 25.6451 4.48249 25.9642 4.52357 26.2781C4.56464 26.5919 4.68041 26.8914 4.86116 27.1512C5.0419 27.4111 5.28235 27.6238 5.56231 27.7715C5.84227 27.9191 6.15357 27.9975 6.47009 28C6.70314 27.9984 6.93411 27.9561 7.15259 27.875L25.1988 21.3125C25.5106 21.1989 25.7886 21.0086 26.0074 20.7592C26.2262 20.5098 26.3786 20.2093 26.4506 19.8855C26.5226 19.5616 26.5118 19.2248 26.4193 18.9062C26.3268 18.5876 26.1556 18.2975 25.9213 18.0625L14.4363 6.57875ZM13.3951 23.48L9.02009 19.105L10.6651 14.5787L17.9213 21.835L13.3951 23.48ZM6.52009 25.98L8.27009 21.1787L11.3263 24.235L6.52009 25.98ZM20.0001 21.08L11.4201 12.5L13.0451 8.01625L24.4738 19.445L20.0001 21.08ZM20.5001 9C20.5189 8.32396 20.6826 7.65983 20.9801 7.0525C21.6426 5.72875 22.8926 5 24.5001 5C25.3376 5 25.8751 4.71375 26.2063 4.09875C26.3808 3.75468 26.4808 3.37777 26.5001 2.9925C26.5011 2.72728 26.6074 2.47332 26.7956 2.28649C26.9839 2.09966 27.2386 1.99526 27.5038 1.99625C27.7691 1.99724 28.023 2.10356 28.2099 2.29179C28.3967 2.48003 28.5011 2.73478 28.5001 3C28.5001 4.6075 27.4351 7 24.5001 7C23.6626 7 23.1251 7.28625 22.7938 7.90125C22.6194 8.24532 22.5193 8.62223 22.5001 9.0075C22.4996 9.13882 22.4732 9.26876 22.4225 9.3899C22.3718 9.51103 22.2978 9.621 22.2045 9.71351C22.1113 9.80602 22.0008 9.87926 21.8793 9.92906C21.7578 9.97886 21.6277 10.0042 21.4963 10.0037C21.365 10.0033 21.2351 9.9769 21.1139 9.92619C20.9928 9.87548 20.8828 9.80141 20.7903 9.70821C20.6978 9.615 20.6246 9.50448 20.5748 9.38297C20.525 9.26145 20.4996 9.13132 20.5001 9ZM17.5001 5V2C17.5001 1.73478 17.6055 1.48043 17.793 1.29289C17.9805 1.10536 18.2349 1 18.5001 1C18.7653 1 19.0197 1.10536 19.2072 1.29289C19.3947 1.48043 19.5001 1.73478 19.5001 2V5C19.5001 5.26522 19.3947 5.51957 19.2072 5.70711C19.0197 5.89464 18.7653 6 18.5001 6C18.2349 6 17.9805 5.89464 17.793 5.70711C17.6055 5.51957 17.5001 5.26522 17.5001 5ZM30.2076 15.2925C30.3004 15.3854 30.374 15.4957 30.4242 15.6171C30.4745 15.7384 30.5003 15.8685 30.5002 15.9998C30.5002 16.1312 30.4742 16.2612 30.4239 16.3825C30.3736 16.5038 30.2999 16.614 30.207 16.7069C30.1141 16.7997 30.0038 16.8733 29.8824 16.9235C29.7611 16.9737 29.631 16.9995 29.4997 16.9995C29.3683 16.9994 29.2383 16.9735 29.117 16.9232C28.9956 16.8729 28.8854 16.7992 28.7926 16.7062L26.7926 14.7063C26.605 14.5186 26.4995 14.2641 26.4995 13.9987C26.4995 13.7334 26.605 13.4789 26.7926 13.2913C26.9802 13.1036 27.2347 12.9982 27.5001 12.9982C27.7655 12.9982 28.02 13.1036 28.2076 13.2913L30.2076 15.2925ZM30.8163 9.94875L27.8163 10.9487C27.5647 11.0326 27.2901 11.0131 27.0528 10.8945C26.8156 10.7759 26.6352 10.5679 26.5513 10.3162C26.4675 10.0646 26.487 9.78999 26.6056 9.55276C26.7242 9.31552 26.9322 9.13513 27.1838 9.05125L30.1838 8.05125C30.4355 7.96738 30.7101 7.98689 30.9473 8.10551C31.1846 8.22413 31.365 8.43213 31.4488 8.68375C31.5327 8.93537 31.5132 9.21001 31.3946 9.44724C31.276 9.68448 31.068 9.86487 30.8163 9.94875Z" fill="url(#paint0_linear_499_33229)" />
  <defs>
    <linearGradient id="paint0_linear_499_33229" x1="22.1922" y1="2.86174" x2="13.3484" y2="24.7368" gradientUnits="userSpaceOnUse">
      <stop stop-color="#F97239" />
      <stop offset="0.409872" stop-color="#ED2F8A" />
      <stop offset="0.868296" stop-color="#C26CEA" />
      <stop offset="1" stop-color="#8886EE" />
    </linearGradient>
  </defs>
</svg>