<svg width="33" height="32" viewBox="0 0 33 32" fill="none" xmlns="http://www.w3.org/2000/svg">
  <path d="M28.9999 21.8752C28.8857 21.9403 28.7598 21.9823 28.6293 21.9987C28.4989 22.0151 28.3665 22.0056 28.2397 21.9708C28.1129 21.9359 27.9942 21.8764 27.8904 21.7957C27.7867 21.7149 27.6999 21.6145 27.6349 21.5002L25.2599 17.3502C23.8792 18.2838 22.356 18.9871 20.7499 19.4327L21.4837 23.8352C21.5053 23.9648 21.5012 24.0974 21.4716 24.2254C21.442 24.3534 21.3874 24.4744 21.311 24.5813C21.2346 24.6882 21.1379 24.779 21.0264 24.8485C20.9149 24.918 20.7908 24.9649 20.6612 24.9864C20.6079 24.9952 20.554 24.9998 20.4999 25.0002C20.2634 24.9998 20.0346 24.9156 19.8542 24.7625C19.6739 24.6094 19.5537 24.3973 19.5149 24.1639L18.7937 19.8414C17.2727 20.0531 15.7297 20.0531 14.2087 19.8414L13.4874 24.1639C13.4486 24.3977 13.328 24.6102 13.1472 24.7633C12.9663 24.9165 12.7369 25.0004 12.4999 25.0002C12.4447 25 12.3895 24.9954 12.3349 24.9864C12.2053 24.9649 12.0812 24.918 11.9697 24.8485C11.8582 24.779 11.7615 24.6882 11.6851 24.5813C11.6087 24.4744 11.5541 24.3534 11.5245 24.2254C11.4949 24.0974 11.4908 23.9648 11.5124 23.8352L12.2499 19.4327C10.6445 18.9857 9.12219 18.2811 7.74244 17.3464L5.37494 21.5002C5.24233 21.7313 5.02336 21.9002 4.7662 21.9698C4.50904 22.0394 4.23476 22.004 4.00369 21.8714C3.77262 21.7388 3.60369 21.5199 3.53407 21.2627C3.46444 21.0055 3.49983 20.7313 3.63244 20.5002L6.13244 16.1252C5.25431 15.3665 4.44683 14.5298 3.71994 13.6252C3.62928 13.524 3.56021 13.4053 3.51693 13.2765C3.47365 13.1477 3.45707 13.0115 3.46821 12.8761C3.47934 12.7406 3.51796 12.6089 3.5817 12.4889C3.64544 12.3689 3.73296 12.2632 3.83893 12.1781C3.9449 12.0931 4.06708 12.0305 4.19803 11.9943C4.32898 11.958 4.46595 11.9488 4.60056 11.9673C4.73518 11.9857 4.86463 12.0314 4.98101 12.1015C5.09738 12.1717 5.19824 12.2648 5.27744 12.3752C7.35244 14.9427 10.9824 18.0002 16.4999 18.0002C22.0174 18.0002 25.6474 14.9389 27.7224 12.3752C27.8007 12.2625 27.9014 12.1672 28.0181 12.095C28.1348 12.0229 28.2651 11.9756 28.4009 11.956C28.5367 11.9365 28.6751 11.945 28.8074 11.9812C28.9398 12.0174 29.0632 12.0804 29.1702 12.1664C29.2771 12.2524 29.3652 12.3594 29.429 12.4809C29.4928 12.6023 29.5309 12.7356 29.541 12.8725C29.551 13.0093 29.5328 13.1467 29.4875 13.2762C29.4421 13.4057 29.3706 13.5245 29.2774 13.6252C28.5505 14.5298 27.7431 15.3665 26.8649 16.1252L29.3649 20.5002C29.432 20.6142 29.4759 20.7405 29.4938 20.8716C29.5118 21.0027 29.5036 21.136 29.4696 21.2639C29.4357 21.3918 29.3767 21.5117 29.296 21.6166C29.2154 21.7216 29.1148 21.8094 28.9999 21.8752Z" fill="url(#paint0_linear_4279_2253)" />
  <defs>
    <linearGradient id="paint0_linear_4279_2253" x1="20.551" y1="12.8459" x2="18.1593" y2="24.6672" gradientUnits="userSpaceOnUse">
      <stop stop-color="#F97239" />
      <stop offset="0.409872" stop-color="#ED2F8A" />
      <stop offset="0.868296" stop-color="#C26CEA" />
      <stop offset="1" stop-color="#8886EE" />
    </linearGradient>
  </defs>
</svg>