<svg width="33" height="32" viewBox="0 0 33 32" fill="none" xmlns="http://www.w3.org/2000/svg">
  <path d="M27.5713 4.92898C25.9829 3.33837 23.9049 2.32932 21.6726 2.06468C19.4403 1.80003 17.184 2.29522 15.2677 3.47033C13.3514 4.64544 11.8869 6.43194 11.1106 8.54153C10.3342 10.6511 10.2913 12.9608 10.9888 15.0977L4.08626 22.0002C3.89973 22.1853 3.75185 22.4056 3.65121 22.6483C3.55057 22.891 3.49917 23.1512 3.50001 23.414V27.0002C3.50001 27.5307 3.71072 28.0394 4.0858 28.4144C4.46087 28.7895 4.96958 29.0002 5.50001 29.0002H9.50001C9.76523 29.0002 10.0196 28.8949 10.2071 28.7073C10.3947 28.5198 10.5 28.2654 10.5 28.0002V26.0002H12.5C12.7652 26.0002 13.0196 25.8949 13.2071 25.7073C13.3947 25.5198 13.5 25.2654 13.5 25.0002V23.0002H15.5C15.6314 23.0003 15.7615 22.9746 15.8829 22.9244C16.0043 22.8742 16.1146 22.8006 16.2075 22.7077L17.4025 21.5115C18.4028 21.8368 19.4482 22.0018 20.5 22.0002H20.5125C22.4893 21.9978 24.4211 21.4096 26.0637 20.3098C27.7063 19.2101 28.9862 17.6481 29.7415 15.8213C30.4969 13.9946 30.6939 11.9849 30.3076 10.0462C29.9213 8.10747 28.9691 6.32676 27.5713 4.92898ZM28.5 12.2627C28.3638 16.524 24.7813 19.9952 20.5138 20.0002H20.5C19.4877 20.0019 18.4844 19.8106 17.5438 19.4365C17.3598 19.3566 17.156 19.334 16.9589 19.3714C16.7619 19.4088 16.5806 19.5047 16.4388 19.6465L15.0863 21.0002H12.5C12.2348 21.0002 11.9804 21.1056 11.7929 21.2931C11.6054 21.4807 11.5 21.735 11.5 22.0002V24.0002H9.50001C9.23479 24.0002 8.98044 24.1056 8.7929 24.2931C8.60537 24.4807 8.50001 24.735 8.50001 25.0002V27.0002H5.50001V23.414L12.8538 16.0615C12.9955 15.9196 13.0914 15.7384 13.1288 15.5413C13.1663 15.3442 13.1436 15.1405 13.0638 14.9565C12.6884 14.0127 12.4971 13.0059 12.5 11.9902C12.5 7.72273 15.9763 4.14023 20.2375 4.00398C21.3321 3.96745 22.4225 4.15606 23.4413 4.55813C24.46 4.96019 25.3853 5.56715 26.1599 6.34139C26.9345 7.11564 27.5419 8.04069 27.9444 9.05923C28.3469 10.0778 28.536 11.1681 28.5 12.2627ZM24.5 9.50023C24.5 9.79691 24.412 10.0869 24.2472 10.3336C24.0824 10.5803 23.8481 10.7725 23.574 10.8861C23.2999 10.9996 22.9983 11.0293 22.7074 10.9714C22.4164 10.9135 22.1491 10.7707 21.9394 10.5609C21.7296 10.3511 21.5867 10.0838 21.5288 9.79287C21.471 9.5019 21.5007 9.2003 21.6142 8.92621C21.7277 8.65212 21.92 8.41785 22.1667 8.25303C22.4133 8.08821 22.7033 8.00023 23 8.00023C23.3978 8.00023 23.7794 8.15827 24.0607 8.43957C24.342 8.72088 24.5 9.10241 24.5 9.50023Z" fill="url(#paint0_linear_4121_3865)" />
  <defs>
    <linearGradient id="paint0_linear_4121_3865" x1="21.1899" y1="3.85721" x2="12.345" y2="25.7368" gradientUnits="userSpaceOnUse">
      <stop stop-color="#F97239" />
      <stop offset="0.409872" stop-color="#ED2F8A" />
      <stop offset="0.868296" stop-color="#C26CEA" />
      <stop offset="1" stop-color="#8886EE" />
    </linearGradient>
  </defs>
</svg>