<svg width="33" height="32" viewBox="0 0 33 32" fill="none" xmlns="http://www.w3.org/2000/svg">
  <path d="M27.5713 4.92874C25.9829 3.33812 23.9049 2.32908 21.6726 2.06443C19.4403 1.79979 17.184 2.29497 15.2677 3.47009C13.3514 4.6452 11.8869 6.43169 11.1106 8.54129C10.3342 10.6509 10.2913 12.9605 10.9888 15.0975L4.08626 22C3.89973 22.185 3.75185 22.4053 3.65121 22.648C3.55057 22.8907 3.49917 23.151 3.50001 23.4137V27C3.50001 27.5304 3.71072 28.0391 4.0858 28.4142C4.46087 28.7893 4.96958 29 5.50001 29H9.50001C9.76523 29 10.0196 28.8946 10.2071 28.7071C10.3947 28.5196 10.5 28.2652 10.5 28V26H12.5C12.7652 26 13.0196 25.8946 13.2071 25.7071C13.3947 25.5196 13.5 25.2652 13.5 25V23H15.5C15.6314 23.0001 15.7615 22.9743 15.8829 22.9241C16.0043 22.8739 16.1146 22.8003 16.2075 22.7075L17.4025 21.5112C18.4028 21.8366 19.4482 22.0015 20.5 22H20.5125C22.4893 21.9976 24.4211 21.4094 26.0637 20.3096C27.7063 19.2098 28.9862 17.6479 29.7415 15.8211C30.4969 13.9943 30.6939 11.9846 30.3076 10.0459C29.9213 8.10723 28.9691 6.32651 27.5713 4.92874ZM28.5 12.2625C28.3638 16.5237 24.7813 19.995 20.5138 20H20.5C19.4877 20.0017 18.4844 19.8104 17.5438 19.4362C17.3598 19.3564 17.156 19.3337 16.9589 19.3712C16.7619 19.4086 16.5806 19.5044 16.4388 19.6462L15.0863 21H12.5C12.2348 21 11.9804 21.1053 11.7929 21.2929C11.6054 21.4804 11.5 21.7348 11.5 22V24H9.50001C9.23479 24 8.98044 24.1053 8.7929 24.2929C8.60537 24.4804 8.50001 24.7348 8.50001 25V27H5.50001V23.4137L12.8538 16.0612C12.9955 15.9194 13.0914 15.7381 13.1288 15.5411C13.1663 15.344 13.1436 15.1402 13.0638 14.9562C12.6884 14.0125 12.4971 13.0056 12.5 11.99C12.5 7.72249 15.9763 4.13999 20.2375 4.00374C21.3321 3.96721 22.4225 4.15582 23.4413 4.55788C24.46 4.95995 25.3853 5.5669 26.1599 6.34115C26.9345 7.1154 27.5419 8.04044 27.9444 9.05899C28.3469 10.0775 28.536 11.1679 28.5 12.2625ZM24.5 9.49999C24.5 9.79666 24.412 10.0867 24.2472 10.3333C24.0824 10.58 23.8481 10.7723 23.574 10.8858C23.2999 10.9993 22.9983 11.029 22.7074 10.9712C22.4164 10.9133 22.1491 10.7704 21.9394 10.5606C21.7296 10.3509 21.5867 10.0836 21.5288 9.79262C21.471 9.50165 21.5007 9.20005 21.6142 8.92596C21.7277 8.65187 21.92 8.41761 22.1667 8.25278C22.4133 8.08796 22.7033 7.99999 23 7.99999C23.3978 7.99999 23.7794 8.15802 24.0607 8.43933C24.342 8.72063 24.5 9.10216 24.5 9.49999Z" fill="url(#paint0_linear_499_33856)" />
  <defs>
    <linearGradient id="paint0_linear_499_33856" x1="24.8753" y1="14.2115" x2="9.42219" y2="20.1309" gradientUnits="userSpaceOnUse">
      <stop stop-color="#F97239" />
      <stop offset="0.409872" stop-color="#ED2F8A" />
      <stop offset="0.727403" stop-color="#BB8EEF" />
      <stop offset="1" stop-color="#2E8AEB" />
    </linearGradient>
  </defs>
</svg>