<svg width="27" height="23" viewBox="0 0 27 23" fill="none" xmlns="http://www.w3.org/2000/svg">
  <path d="M25.5 21H24.5V1C24.5 0.734784 24.3946 0.48043 24.2071 0.292893C24.0196 0.105357 23.7652 0 23.5 0H16.5C16.2348 0 15.9804 0.105357 15.7929 0.292893C15.6054 0.48043 15.5 0.734784 15.5 1V6H9.5C9.23478 6 8.98043 6.10536 8.79289 6.29289C8.60536 6.48043 8.5 6.73478 8.5 7V12H3.5C3.23478 12 2.98043 12.1054 2.79289 12.2929C2.60536 12.4804 2.5 12.7348 2.5 13V21H1.5C1.23478 21 0.98043 21.1054 0.792893 21.2929C0.605357 21.4804 0.5 21.7348 0.5 22C0.5 22.2652 0.605357 22.5196 0.792893 22.7071C0.98043 22.8946 1.23478 23 1.5 23H25.5C25.7652 23 26.0196 22.8946 26.2071 22.7071C26.3946 22.5196 26.5 22.2652 26.5 22C26.5 21.7348 26.3946 21.4804 26.2071 21.2929C26.0196 21.1054 25.7652 21 25.5 21ZM17.5 2H22.5V21H17.5V2ZM10.5 8H15.5V21H10.5V8ZM4.5 14H8.5V21H4.5V14Z" fill="url(#paint0_linear_4279_12363)" />
  <defs>
    <linearGradient id="paint0_linear_4279_12363" x1="17.5345" y1="1.58593" x2="10.6615" y2="20.8085" gradientUnits="userSpaceOnUse">
      <stop stop-color="#F97239" />
      <stop offset="0.409872" stop-color="#ED2F8A" />
      <stop offset="0.868296" stop-color="#C26CEA" />
      <stop offset="1" stop-color="#8886EE" />
    </linearGradient>
  </defs>
</svg>