<svg width="10" height="13" viewBox="0 0 10 13" fill="none" xmlns="http://www.w3.org/2000/svg">
  <path d="M8.5 0H1.5C1.23478 0 0.98043 0.105357 0.792893 0.292893C0.605357 0.48043 0.5 0.734784 0.5 1V3.25C0.500338 3.40519 0.536631 3.55818 0.606032 3.69698C0.675434 3.83579 0.776055 3.95662 0.9 4.05L4.16687 6.5L0.9 8.95C0.776055 9.04338 0.675434 9.16421 0.606032 9.30302C0.536631 9.44182 0.500338 9.59481 0.5 9.75V12C0.5 12.2652 0.605357 12.5196 0.792893 12.7071C0.98043 12.8946 1.23478 13 1.5 13H8.5C8.76522 13 9.01957 12.8946 9.20711 12.7071C9.39464 12.5196 9.5 12.2652 9.5 12V9.7725C9.49964 9.61791 9.46365 9.46548 9.39482 9.32706C9.32599 9.18864 9.22617 9.06795 9.10312 8.97437L5.82938 6.5L9.10312 4.025C9.22623 3.93162 9.3261 3.81105 9.39494 3.67272C9.46378 3.53439 9.49974 3.38202 9.5 3.2275V1C9.5 0.734784 9.39464 0.48043 9.20711 0.292893C9.01957 0.105357 8.76522 0 8.5 0ZM8.5 1V2H1.5V1H8.5ZM8.5 12H1.5V9.75L5 7.125L8.5 9.77188V12ZM5 5.875L1.5 3.25V3H8.5V3.2275L5 5.875Z" fill="#FF9114" />
</svg>