<svg width="33" height="32" viewBox="0 0 33 32" fill="none" xmlns="http://www.w3.org/2000/svg">
  <path d="M6.5 7V25C6.5 25.2652 6.39464 25.5196 6.20711 25.7071C6.01957 25.8946 5.76522 26 5.5 26C5.23478 26 4.98043 25.8946 4.79289 25.7071C4.60536 25.5196 4.5 25.2652 4.5 25V7C4.5 6.73478 4.60536 6.48043 4.79289 6.29289C4.98043 6.10536 5.23478 6 5.5 6C5.76522 6 6.01957 6.10536 6.20711 6.29289C6.39464 6.48043 6.5 6.73478 6.5 7ZM18 13.8125L15.5 14.625V12C15.5 11.7348 15.3946 11.4804 15.2071 11.2929C15.0196 11.1054 14.7652 11 14.5 11C14.2348 11 13.9804 11.1054 13.7929 11.2929C13.6054 11.4804 13.5 11.7348 13.5 12V14.625L11 13.8125C10.7477 13.7296 10.4728 13.7504 10.2358 13.8701C9.99884 13.9899 9.81913 14.199 9.73625 14.4513C9.65337 14.7035 9.67411 14.9784 9.79389 15.2154C9.91368 15.4524 10.1227 15.6321 10.375 15.715L12.875 16.5263L11.3325 18.6513C11.251 18.7572 11.1915 18.8783 11.1576 19.0076C11.1238 19.1369 11.1161 19.2717 11.1352 19.404C11.1543 19.5363 11.1997 19.6634 11.2688 19.7778C11.3378 19.8922 11.4291 19.9917 11.5372 20.0702C11.6454 20.1488 11.7682 20.2048 11.8983 20.2351C12.0285 20.2654 12.1634 20.2693 12.2951 20.2466C12.4268 20.2238 12.5527 20.1749 12.6651 20.1027C12.7776 20.0305 12.8745 19.9365 12.95 19.8263L14.4925 17.7013L16.035 19.8263C16.1105 19.9365 16.2074 20.0305 16.3199 20.1027C16.4323 20.1749 16.5582 20.2238 16.6899 20.2466C16.8216 20.2693 16.9565 20.2654 17.0867 20.2351C17.2168 20.2048 17.3396 20.1488 17.4478 20.0702C17.5559 19.9917 17.6472 19.8922 17.7162 19.7778C17.7853 19.6634 17.8307 19.5363 17.8498 19.404C17.8689 19.2717 17.8612 19.1369 17.8274 19.0076C17.7935 18.8783 17.734 18.7572 17.6525 18.6513L16.11 16.5263L18.61 15.715C18.8511 15.6253 19.0484 15.4461 19.1609 15.2147C19.2733 14.9833 19.2922 14.7174 19.2136 14.4724C19.1351 14.2274 18.9651 14.0221 18.7391 13.8992C18.513 13.7763 18.2483 13.7453 18 13.8125ZM31.25 14.455C31.168 14.205 30.9909 13.9974 30.7569 13.8771C30.5229 13.7569 30.251 13.7336 30 13.8125L27.5 14.625V12C27.5 11.7348 27.3946 11.4804 27.2071 11.2929C27.0196 11.1054 26.7652 11 26.5 11C26.2348 11 25.9804 11.1054 25.7929 11.2929C25.6054 11.4804 25.5 11.7348 25.5 12V14.625L23 13.8138C22.7477 13.7317 22.4732 13.7532 22.2368 13.8736C22.0003 13.994 21.8214 14.2033 21.7394 14.4556C21.6573 14.7079 21.6789 14.9825 21.7992 15.2189C21.9196 15.4553 22.129 15.6342 22.3813 15.7163L24.8813 16.5275L23.3388 18.6525C23.2572 18.7584 23.1978 18.8796 23.1639 19.0089C23.13 19.1382 23.1224 19.2729 23.1415 19.4052C23.1606 19.5375 23.206 19.6646 23.275 19.7791C23.3441 19.8935 23.4354 19.9929 23.5435 20.0715C23.6516 20.15 23.7744 20.2061 23.9046 20.2364C24.0348 20.2667 24.1697 20.2706 24.3014 20.2478C24.4331 20.2251 24.5589 20.1762 24.6714 20.104C24.7839 20.0318 24.8807 19.9378 24.9562 19.8275L26.4988 17.7025L28.0413 19.8275C28.1168 19.9378 28.2136 20.0318 28.3261 20.104C28.4386 20.1762 28.5644 20.2251 28.6961 20.2478C28.8278 20.2706 28.9627 20.2667 29.0929 20.2364C29.2231 20.2061 29.3459 20.15 29.454 20.0715C29.5621 19.9929 29.6534 19.8935 29.7225 19.7791C29.7915 19.6646 29.8369 19.5375 29.856 19.4052C29.8751 19.2729 29.8675 19.1382 29.8336 19.0089C29.7997 18.8796 29.7403 18.7584 29.6588 18.6525L28.1162 16.5275L30.6162 15.7163C30.8672 15.6326 31.0749 15.4529 31.1936 15.2165C31.3124 14.9801 31.3327 14.7063 31.25 14.455Z" fill="url(#paint0_linear_499_36332)" />
  <defs>
    <linearGradient id="paint0_linear_499_36332" x1="25.7167" y1="15.0476" x2="11.7965" y2="22.1941" gradientUnits="userSpaceOnUse">
      <stop stop-color="#F97239" />
      <stop offset="0.409872" stop-color="#ED2F8A" />
      <stop offset="0.727403" stop-color="#BB8EEF" />
      <stop offset="1" stop-color="#2E8AEB" />
    </linearGradient>
  </defs>
</svg>