<svg width="33" height="32" viewBox="0 0 33 32" fill="none" xmlns="http://www.w3.org/2000/svg">
  <path d="M27.5 8H22.5C22.5 6.4087 21.8679 4.88258 20.7426 3.75736C19.6174 2.63214 18.0913 2 16.5 2C14.9087 2 13.3826 2.63214 12.2574 3.75736C11.1321 4.88258 10.5 6.4087 10.5 8H5.5C4.96957 8 4.46086 8.21071 4.08579 8.58579C3.71071 8.96086 3.5 9.46957 3.5 10V25C3.5 25.5304 3.71071 26.0391 4.08579 26.4142C4.46086 26.7893 4.96957 27 5.5 27H27.5C28.0304 27 28.5391 26.7893 28.9142 26.4142C29.2893 26.0391 29.5 25.5304 29.5 25V10C29.5 9.46957 29.2893 8.96086 28.9142 8.58579C28.5391 8.21071 28.0304 8 27.5 8ZM16.5 4C17.5609 4 18.5783 4.42143 19.3284 5.17157C20.0786 5.92172 20.5 6.93913 20.5 8H12.5C12.5 6.93913 12.9214 5.92172 13.6716 5.17157C14.4217 4.42143 15.4391 4 16.5 4ZM27.5 25H5.5V10H10.5V12C10.5 12.2652 10.6054 12.5196 10.7929 12.7071C10.9804 12.8946 11.2348 13 11.5 13C11.7652 13 12.0196 12.8946 12.2071 12.7071C12.3946 12.5196 12.5 12.2652 12.5 12V10H20.5V12C20.5 12.2652 20.6054 12.5196 20.7929 12.7071C20.9804 12.8946 21.2348 13 21.5 13C21.7652 13 22.0196 12.8946 22.2071 12.7071C22.3946 12.5196 22.5 12.2652 22.5 12V10H27.5V25Z" fill="url(#paint0_linear_4085_7467)" />
  <defs>
    <linearGradient id="paint0_linear_4085_7467" x1="20.5345" y1="3.72384" x2="12.5779" y2="24.1968" gradientUnits="userSpaceOnUse">
      <stop stop-color="#F97239" />
      <stop offset="0.409872" stop-color="#ED2F8A" />
      <stop offset="0.868296" stop-color="#C26CEA" />
      <stop offset="1" stop-color="#8886EE" />
    </linearGradient>
  </defs>
</svg>