<svg width="33" height="32" viewBox="0 0 33 32" fill="none" xmlns="http://www.w3.org/2000/svg">
  <path d="M29.2075 27.2923L22.9488 21.0348C24.7628 18.8569 25.6674 16.0635 25.4743 13.2357C25.2813 10.4079 24.0054 7.76337 21.9122 5.85226C19.819 3.94116 17.0696 2.91061 14.2359 2.97501C11.4023 3.03941 8.70249 4.1938 6.69827 6.19802C4.69404 8.20225 3.53966 10.902 3.47526 13.7357C3.41086 16.5694 4.4414 19.3188 6.35251 21.412C8.26361 23.5052 10.9081 24.781 13.736 24.9741C16.5638 25.1672 19.3572 24.2626 21.535 22.4485L27.7925 28.7073C27.8855 28.8002 27.9958 28.8739 28.1171 28.9242C28.2385 28.9745 28.3686 29.0004 28.5 29.0004C28.6314 29.0004 28.7615 28.9745 28.8829 28.9242C29.0043 28.8739 29.1146 28.8002 29.2075 28.7073C29.3005 28.6144 29.3742 28.5041 29.4244 28.3827C29.4747 28.2613 29.5006 28.1312 29.5006 27.9998C29.5006 27.8684 29.4747 27.7383 29.4244 27.6169C29.3742 27.4955 29.3005 27.3852 29.2075 27.2923ZM5.50004 13.9998C5.50004 12.2198 6.02788 10.4797 7.01681 8.99966C8.00575 7.51962 9.41136 6.36607 11.0559 5.68488C12.7004 5.00369 14.51 4.82546 16.2559 5.17273C18.0017 5.52 19.6053 6.37716 20.864 7.63584C22.1227 8.89451 22.9798 10.4982 23.3271 12.244C23.6744 13.9898 23.4961 15.7994 22.815 17.4439C22.1338 19.0885 20.9802 20.4941 19.5002 21.483C18.0201 22.472 16.2801 22.9998 14.5 22.9998C12.1139 22.9972 9.82626 22.0481 8.139 20.3608C6.45175 18.6736 5.50269 16.3859 5.50004 13.9998Z" fill="url(#paint0_linear_4219_10130)" />
  <defs>
    <linearGradient id="paint0_linear_4219_10130" x1="20.5254" y1="4.7669" x2="12.0015" y2="25.856" gradientUnits="userSpaceOnUse">
      <stop stop-color="#F97239" />
      <stop offset="0.409872" stop-color="#ED2F8A" />
      <stop offset="0.868296" stop-color="#C26CEA" />
      <stop offset="1" stop-color="#8886EE" />
    </linearGradient>
  </defs>
</svg>