<svg width="25" height="24" viewBox="0 0 25 24" fill="none" xmlns="http://www.w3.org/2000/svg">
  <path d="M21.8434 13.2244C21.5644 13.0096 21.2395 12.8622 20.8942 12.7934C20.5488 12.7246 20.1922 12.7364 19.8522 12.8278L15.9297 13.7297C16.0209 13.3442 16.0238 12.943 15.9379 12.5563C15.8521 12.1695 15.6798 11.8072 15.4341 11.4965C15.1883 11.1858 14.8754 10.9347 14.5188 10.7622C14.1622 10.5896 13.7712 10.5 13.375 10.5H8.68188C8.28775 10.499 7.89733 10.5761 7.53319 10.7269C7.16904 10.8777 6.83838 11.0991 6.56031 11.3784L4.43969 13.5H1.75C1.35218 13.5 0.970644 13.658 0.68934 13.9393C0.408035 14.2206 0.25 14.6022 0.25 15L0.25 18.75C0.25 19.1478 0.408035 19.5294 0.68934 19.8107C0.970644 20.092 1.35218 20.25 1.75 20.25H11.5C11.5613 20.25 11.6224 20.2425 11.6819 20.2275L17.6819 18.7275C17.7201 18.7184 17.7575 18.7058 17.7934 18.69L21.4375 17.1394L21.4788 17.1206C21.829 16.9456 22.1289 16.6843 22.3502 16.3614C22.5715 16.0385 22.707 15.6645 22.7439 15.2747C22.7807 14.8849 22.7178 14.4922 22.5609 14.1335C22.404 13.7748 22.1584 13.4619 21.8472 13.2244H21.8434ZM1.75 15H4V18.75H1.75V15ZM20.8216 15.7697L17.2591 17.2866L11.4062 18.75H5.5V14.5603L7.62156 12.4397C7.76035 12.2998 7.92555 12.1889 8.10758 12.1134C8.2896 12.0379 8.48482 11.9994 8.68188 12H13.375C13.6734 12 13.9595 12.1185 14.1705 12.3295C14.3815 12.5405 14.5 12.8266 14.5 13.125C14.5 13.4234 14.3815 13.7095 14.1705 13.9205C13.9595 14.1315 13.6734 14.25 13.375 14.25H10.75C10.5511 14.25 10.3603 14.329 10.2197 14.4697C10.079 14.6103 10 14.8011 10 15C10 15.1989 10.079 15.3897 10.2197 15.5303C10.3603 15.671 10.5511 15.75 10.75 15.75H13.75C13.8065 15.7498 13.8627 15.7436 13.9178 15.7313L20.1991 14.2866L20.2281 14.2791C20.4199 14.2258 20.6245 14.2454 20.8027 14.334C20.9809 14.4226 21.12 14.5739 21.1934 14.7589C21.2667 14.9439 21.2689 15.1495 21.1998 15.3361C21.1306 15.5227 20.9949 15.6771 20.8187 15.7697H20.8216ZM15.625 9C15.8103 9.00021 15.9953 8.98516 16.1781 8.955C16.3838 9.56582 16.76 10.105 17.2624 10.5088C17.7647 10.9125 18.3722 11.164 19.013 11.2335C19.6537 11.3029 20.301 11.1875 20.8782 10.9008C21.4554 10.614 21.9384 10.168 22.2702 9.61547C22.602 9.06291 22.7686 8.42691 22.7504 7.78266C22.7321 7.1384 22.5298 6.51284 22.1673 5.97993C21.8048 5.44703 21.2973 5.02905 20.7048 4.77543C20.1123 4.52181 19.4596 4.44315 18.8237 4.54875C18.6257 3.96023 18.2692 3.43775 17.7934 3.03879C17.3176 2.63984 16.7409 2.37988 16.1269 2.28754C15.5129 2.19519 14.8853 2.27403 14.3131 2.51537C13.741 2.75672 13.2466 3.15123 12.8842 3.65547C12.5219 4.15971 12.3056 4.75414 12.2593 5.37335C12.213 5.99256 12.3385 6.61254 12.6218 7.16506C12.9052 7.71759 13.3354 8.18123 13.8653 8.50497C14.3952 8.82872 15.0041 9.00001 15.625 9ZM21.25 7.875C21.25 8.24584 21.14 8.60835 20.934 8.9167C20.728 9.22504 20.4351 9.46536 20.0925 9.60728C19.7499 9.74919 19.3729 9.78632 19.0092 9.71397C18.6455 9.64163 18.3114 9.46305 18.0492 9.20083C17.787 8.9386 17.6084 8.60451 17.536 8.2408C17.4637 7.87708 17.5008 7.50008 17.6427 7.15747C17.7846 6.81486 18.025 6.52202 18.3333 6.316C18.6416 6.10997 19.0042 6 19.375 6C19.8723 6 20.3492 6.19755 20.7008 6.54918C21.0525 6.90081 21.25 7.37772 21.25 7.875ZM15.625 3.75C16.034 3.75021 16.4318 3.88416 16.7576 4.13145C17.0834 4.37874 17.3195 4.72579 17.4297 5.11969C17.0456 5.38997 16.7221 5.73744 16.4799 6.13989C16.2378 6.54234 16.0823 6.9909 16.0234 7.45688C15.8925 7.48515 15.759 7.49961 15.625 7.5C15.1277 7.5 14.6508 7.30246 14.2992 6.95083C13.9475 6.5992 13.75 6.12228 13.75 5.625C13.75 5.12772 13.9475 4.65081 14.2992 4.29918C14.6508 3.94755 15.1277 3.75 15.625 3.75Z" fill="url(#paint0_linear_4219_9264)" />
  <defs>
    <linearGradient id="paint0_linear_4219_9264" x1="18.0658" y1="10.3929" x2="6.05239" y2="16.1472" gradientUnits="userSpaceOnUse">
      <stop stop-color="#F97239" />
      <stop offset="0.409872" stop-color="#ED2F8A" />
      <stop offset="0.727403" stop-color="#BB8EEF" />
      <stop offset="1" stop-color="#2E8AEB" />
    </linearGradient>
  </defs>
</svg>