<svg width="32" height="32" viewBox="0 0 32 32" fill="none" xmlns="http://www.w3.org/2000/svg">
  <path d="M29.8976 12.1573C29.7726 11.773 29.5366 11.4342 29.2194 11.1838C28.9022 10.9333 28.5179 10.7823 28.1151 10.7498L20.7401 10.1548L17.8926 3.26858C17.7386 2.89335 17.4765 2.57239 17.1396 2.3465C16.8027 2.12061 16.4063 2 16.0007 2C15.5951 2 15.1987 2.12061 14.8618 2.3465C14.5249 2.57239 14.2628 2.89335 14.1088 3.26858L11.2638 10.1536L3.88508 10.7498C3.48156 10.784 3.09707 10.9364 2.7798 11.1881C2.46253 11.4398 2.22659 11.7795 2.10153 12.1646C1.97648 12.5498 1.96787 12.9633 2.07679 13.3534C2.18571 13.7434 2.40731 14.0927 2.71383 14.3573L8.33883 19.2111L6.62508 26.4686C6.52924 26.8629 6.55271 27.2767 6.69251 27.6577C6.83231 28.0386 7.08214 28.3694 7.41028 28.608C7.73843 28.8467 8.13009 28.9825 8.53555 28.9982C8.94102 29.0139 9.34199 28.9087 9.68758 28.6961L16.0001 24.8111L22.3163 28.6961C22.662 28.9062 23.0622 29.0093 23.4664 28.9925C23.8706 28.9756 24.2608 28.8395 24.5878 28.6014C24.9149 28.3632 25.1641 28.0336 25.3042 27.6541C25.4443 27.2746 25.469 26.8621 25.3751 26.4686L23.6551 19.2098L29.2801 14.3561C29.5891 14.0919 29.8127 13.7419 29.9226 13.3504C30.0326 12.959 30.0238 12.5438 29.8976 12.1573ZM27.9801 12.8411L21.8926 18.0911C21.7538 18.2107 21.6505 18.3662 21.5941 18.5406C21.5376 18.715 21.5302 18.9015 21.5726 19.0798L23.4326 26.9298C23.4374 26.9406 23.4379 26.9529 23.4339 26.9641C23.43 26.9752 23.4219 26.9844 23.4113 26.9898C23.3888 27.0073 23.3826 27.0036 23.3638 26.9898L16.5238 22.7836C16.3663 22.6867 16.185 22.6354 16.0001 22.6354C15.8152 22.6354 15.6339 22.6867 15.4763 22.7836L8.63633 26.9923C8.61758 27.0036 8.61258 27.0073 8.58883 26.9923C8.57828 26.9869 8.5702 26.9777 8.56625 26.9666C8.56229 26.9554 8.56277 26.9431 8.56758 26.9323L10.4276 19.0823C10.47 18.904 10.4625 18.7175 10.4061 18.5431C10.3497 18.3687 10.2464 18.2132 10.1076 18.0936L4.02008 12.8436C4.00508 12.8311 3.99133 12.8198 4.00383 12.7811C4.01633 12.7423 4.02633 12.7473 4.04508 12.7448L12.0351 12.0998C12.2183 12.0841 12.3937 12.0181 12.5419 11.9092C12.6901 11.8003 12.8054 11.6526 12.8751 11.4823L15.9526 4.03108C15.9626 4.00983 15.9663 3.99983 15.9963 3.99983C16.0263 3.99983 16.0301 4.00983 16.0401 4.03108L19.1251 11.4823C19.1954 11.6526 19.3114 11.8002 19.4603 11.9087C19.6092 12.0172 19.7852 12.0825 19.9688 12.0973L27.9588 12.7423C27.9776 12.7423 27.9888 12.7423 28.0001 12.7786C28.0113 12.8148 28.0001 12.8286 27.9801 12.8411Z" fill="url(#paint0_linear_4249_13103)" />
  <defs>
    <linearGradient id="paint0_linear_4249_13103" x1="20.3446" y1="3.86172" x2="11.7332" y2="25.9554" gradientUnits="userSpaceOnUse">
      <stop stop-color="#F97239" />
      <stop offset="0.409872" stop-color="#ED2F8A" />
      <stop offset="0.868296" stop-color="#C26CEA" />
      <stop offset="1" stop-color="#8886EE" />
    </linearGradient>
  </defs>
</svg>