<svg width="33" height="32" viewBox="0 0 33 32" fill="none" xmlns="http://www.w3.org/2000/svg">
  <path d="M16.5 3C13.9288 3 11.4154 3.76244 9.27759 5.1909C7.13975 6.61935 5.47351 8.64968 4.48957 11.0251C3.50563 13.4006 3.24819 16.0144 3.7498 18.5362C4.25141 21.0579 5.48953 23.3743 7.30762 25.1924C9.1257 27.0105 11.4421 28.2486 13.9638 28.7502C16.4856 29.2518 19.0995 28.9944 21.4749 28.0104C23.8503 27.0265 25.8807 25.3603 27.3091 23.2224C28.7376 21.0846 29.5 18.5712 29.5 16C29.4964 12.5533 28.1256 9.24882 25.6884 6.81163C23.2512 4.37445 19.9467 3.00364 16.5 3ZM16.5 27C14.3244 27 12.1977 26.3549 10.3887 25.1462C8.57979 23.9375 7.16989 22.2195 6.33733 20.2095C5.50477 18.1995 5.28693 15.9878 5.71137 13.854C6.13581 11.7202 7.18345 9.7602 8.72183 8.22183C10.2602 6.68345 12.2202 5.6358 14.354 5.21136C16.4878 4.78692 18.6995 5.00476 20.7095 5.83733C22.7195 6.66989 24.4375 8.07979 25.6462 9.88873C26.8549 11.6977 27.5 13.8244 27.5 16C27.4967 18.9164 26.3367 21.7123 24.2745 23.7745C22.2123 25.8367 19.4164 26.9967 16.5 27ZM10.5 13.5C10.5 13.2033 10.588 12.9133 10.7528 12.6666C10.9176 12.42 11.1519 12.2277 11.426 12.1142C11.7001 12.0006 12.0017 11.9709 12.2926 12.0288C12.5836 12.0867 12.8509 12.2296 13.0607 12.4393C13.2704 12.6491 13.4133 12.9164 13.4712 13.2074C13.5291 13.4983 13.4994 13.7999 13.3858 14.074C13.2723 14.3481 13.08 14.5824 12.8334 14.7472C12.5867 14.912 12.2967 15 12 15C11.6022 15 11.2206 14.842 10.9393 14.5607C10.658 14.2794 10.5 13.8978 10.5 13.5ZM22.5 13.5C22.5 13.7967 22.412 14.0867 22.2472 14.3334C22.0824 14.58 21.8481 14.7723 21.574 14.8858C21.2999 14.9994 20.9983 15.0291 20.7074 14.9712C20.4164 14.9133 20.1491 14.7704 19.9393 14.5607C19.7296 14.3509 19.5867 14.0836 19.5288 13.7926C19.471 13.5017 19.5007 13.2001 19.6142 12.926C19.7277 12.6519 19.92 12.4176 20.1667 12.2528C20.4133 12.088 20.7033 12 21 12C21.3978 12 21.7794 12.158 22.0607 12.4393C22.342 12.7206 22.5 13.1022 22.5 13.5ZM22.365 21.5C22.4374 21.6138 22.4859 21.7411 22.5078 21.8742C22.5297 22.0073 22.5245 22.1434 22.4924 22.2744C22.4603 22.4054 22.402 22.5285 22.3211 22.6364C22.2402 22.7443 22.1383 22.8348 22.0215 22.9022C21.9048 22.9697 21.7756 23.0129 21.6417 23.0292C21.5078 23.0454 21.372 23.0345 21.2425 22.9969C21.1129 22.9593 20.9924 22.8959 20.888 22.8105C20.7836 22.7251 20.6975 22.6195 20.635 22.5C19.7013 20.8862 18.2338 20 16.5 20C14.7663 20 13.2988 20.8875 12.365 22.5C12.3025 22.6195 12.2164 22.7251 12.1121 22.8105C12.0077 22.8959 11.8871 22.9593 11.7575 22.9969C11.628 23.0345 11.4922 23.0454 11.3583 23.0292C11.2245 23.0129 11.0952 22.9697 10.9785 22.9022C10.8617 22.8348 10.7598 22.7443 10.6789 22.6364C10.598 22.5285 10.5397 22.4054 10.5076 22.2744C10.4755 22.1434 10.4703 22.0073 10.4922 21.8742C10.5141 21.7411 10.5627 21.6138 10.635 21.5C11.9213 19.2762 14.0588 18 16.5 18C18.9413 18 21.0788 19.275 22.365 21.5Z" fill="url(#paint0_linear_4085_552)" />
  <defs>
    <linearGradient id="paint0_linear_4085_552" x1="20.5345" y1="4.79279" x2="12.0198" y2="25.8591" gradientUnits="userSpaceOnUse">
      <stop stop-color="#F97239" />
      <stop offset="0.409872" stop-color="#ED2F8A" />
      <stop offset="0.868296" stop-color="#C26CEA" />
      <stop offset="1" stop-color="#8886EE" />
    </linearGradient>
  </defs>
</svg>