<svg width="33" height="32" viewBox="0 0 33 32" fill="none" xmlns="http://www.w3.org/2000/svg">
  <path d="M26.5 5H6.5C5.96957 5 5.46086 5.21071 5.08579 5.58579C4.71071 5.96086 4.5 6.46957 4.5 7V14C4.5 20.59 7.69 24.5837 10.3663 26.7738C13.2487 29.1313 16.1163 29.9312 16.2413 29.965C16.4131 30.0118 16.5944 30.0118 16.7663 29.965C16.8913 29.9312 19.755 29.1313 22.6413 26.7738C25.31 24.5837 28.5 20.59 28.5 14V7C28.5 6.46957 28.2893 5.96086 27.9142 5.58579C27.5391 5.21071 27.0304 5 26.5 5ZM26.5 14C26.5 18.6337 24.7925 22.395 21.425 25.1775C19.9591 26.3846 18.2919 27.324 16.5 27.9525C14.7315 27.335 13.0849 26.4123 11.635 25.2262C8.2275 22.4387 6.5 18.6625 6.5 14V7H26.5V14ZM10.7925 17.7075C10.6049 17.5199 10.4994 17.2654 10.4994 17C10.4994 16.7346 10.6049 16.4801 10.7925 16.2925C10.9801 16.1049 11.2346 15.9994 11.5 15.9994C11.7654 15.9994 12.0199 16.1049 12.2075 16.2925L14.5 18.5863L20.7925 12.2925C20.8854 12.1996 20.9957 12.1259 21.1171 12.0756C21.2385 12.0253 21.3686 11.9994 21.5 11.9994C21.6314 11.9994 21.7615 12.0253 21.8829 12.0756C22.0043 12.1259 22.1146 12.1996 22.2075 12.2925C22.3004 12.3854 22.3741 12.4957 22.4244 12.6171C22.4747 12.7385 22.5006 12.8686 22.5006 13C22.5006 13.1314 22.4747 13.2615 22.4244 13.3829C22.3741 13.5043 22.3004 13.6146 22.2075 13.7075L15.2075 20.7075C15.1146 20.8005 15.0043 20.8742 14.8829 20.9246C14.7615 20.9749 14.6314 21.0008 14.5 21.0008C14.3686 21.0008 14.2385 20.9749 14.1171 20.9246C13.9957 20.8742 13.8854 20.8005 13.7925 20.7075L10.7925 17.7075Z" fill="url(#paint0_linear_499_36070)" />
  <defs>
    <linearGradient id="paint0_linear_499_36070" x1="20.2242" y1="6.72384" x2="11.7965" y2="26.7408" gradientUnits="userSpaceOnUse">
      <stop stop-color="#F97239" />
      <stop offset="0.409872" stop-color="#ED2F8A" />
      <stop offset="0.868296" stop-color="#C26CEA" />
      <stop offset="1" stop-color="#8886EE" />
    </linearGradient>
  </defs>
</svg>